<svg xmlns="http://www.w3.org/2000/svg" viewBox="0 0 690.412 360.934">
  <defs>
    <style>
      .cls-1 {
        fill: #3f3d56;
      }

      .cls-2 {
        fill: #f2f2f2;
      }

      .cls-3 {
        fill: #ccc;
      }

      .cls-4 {
        fill: #a0616a;
      }

      .cls-5 {
        fill: #136eff;
      }

      .cls-6 {
        fill: #2f2e41;
      }

      .cls-7 {
        fill: #fff;
      }

      .cls-8 {
        fill: #e6e6e6;
      }

      .cls-9 {
        fill: #ff6584;
      }

      .cls-10 {
        fill: #ffb8b8;
      }
    </style>
  </defs>
  <g id="Symbol_1_1" data-name="Symbol 1 – 1" transform="translate(-864 -2121)">
    <path id="Path_250" data-name="Path 250" class="cls-1" d="M841.159,680.511H152.579a.93.93,0,0,1,0-1.859H841.157a.93.93,0,0,1,0,1.859Z" transform="translate(712.338 1801.343)"/>
    <ellipse id="Ellipse_49" data-name="Ellipse 49" class="cls-2" cx="4.979" cy="5.049" rx="4.979" ry="5.049" transform="translate(1074.884 2155.755)"/>
    <ellipse id="Ellipse_50" data-name="Ellipse 50" class="cls-2" cx="4.979" cy="5.049" rx="4.979" ry="5.049" transform="translate(1055.039 2155.755)"/>
    <ellipse id="Ellipse_51" data-name="Ellipse 51" class="cls-2" cx="4.979" cy="5.049" rx="4.979" ry="5.049" transform="translate(1035.195 2155.755)"/>
    <ellipse id="Ellipse_52" data-name="Ellipse 52" class="cls-2" cx="4.979" cy="5.049" rx="4.979" ry="5.049" transform="translate(1015.35 2155.755)"/>
    <ellipse id="Ellipse_53" data-name="Ellipse 53" class="cls-2" cx="4.979" cy="5.049" rx="4.979" ry="5.049" transform="translate(1074.884 2176.836)"/>
    <ellipse id="Ellipse_54" data-name="Ellipse 54" class="cls-2" cx="4.979" cy="5.049" rx="4.979" ry="5.049" transform="translate(1055.039 2176.836)"/>
    <ellipse id="Ellipse_55" data-name="Ellipse 55" class="cls-2" cx="4.979" cy="5.049" rx="4.979" ry="5.049" transform="translate(1035.195 2176.836)"/>
    <ellipse id="Ellipse_56" data-name="Ellipse 56" class="cls-2" cx="4.979" cy="5.049" rx="4.979" ry="5.049" transform="translate(1015.35 2176.836)"/>
    <ellipse id="Ellipse_57" data-name="Ellipse 57" class="cls-2" cx="4.979" cy="5.049" rx="4.979" ry="5.049" transform="translate(1074.884 2197.917)"/>
    <ellipse id="Ellipse_58" data-name="Ellipse 58" class="cls-2" cx="4.979" cy="5.049" rx="4.979" ry="5.049" transform="translate(1055.039 2197.917)"/>
    <ellipse id="Ellipse_59" data-name="Ellipse 59" class="cls-2" cx="4.979" cy="5.049" rx="4.979" ry="5.049" transform="translate(1035.195 2197.917)"/>
    <ellipse id="Ellipse_60" data-name="Ellipse 60" class="cls-2" cx="4.979" cy="5.049" rx="4.979" ry="5.049" transform="translate(1015.35 2197.917)"/>
    <ellipse id="Ellipse_61" data-name="Ellipse 61" class="cls-2" cx="4.979" cy="5.049" rx="4.979" ry="5.049" transform="translate(1074.884 2218.999)"/>
    <ellipse id="Ellipse_62" data-name="Ellipse 62" class="cls-2" cx="4.979" cy="5.049" rx="4.979" ry="5.049" transform="translate(1055.039 2218.999)"/>
    <ellipse id="Ellipse_63" data-name="Ellipse 63" class="cls-2" cx="4.979" cy="5.049" rx="4.979" ry="5.049" transform="translate(1035.195 2218.999)"/>
    <ellipse id="Ellipse_64" data-name="Ellipse 64" class="cls-2" cx="4.979" cy="5.049" rx="4.979" ry="5.049" transform="translate(1015.35 2218.999)"/>
    <ellipse id="Ellipse_65" data-name="Ellipse 65" class="cls-2" cx="4.979" cy="5.049" rx="4.979" ry="5.049" transform="translate(1074.884 2240.08)"/>
    <ellipse id="Ellipse_66" data-name="Ellipse 66" class="cls-2" cx="4.979" cy="5.049" rx="4.979" ry="5.049" transform="translate(1055.039 2240.08)"/>
    <ellipse id="Ellipse_67" data-name="Ellipse 67" class="cls-2" cx="4.979" cy="5.049" rx="4.979" ry="5.049" transform="translate(1035.195 2240.08)"/>
    <ellipse id="Ellipse_68" data-name="Ellipse 68" class="cls-2" cx="4.979" cy="5.049" rx="4.979" ry="5.049" transform="translate(1015.35 2240.08)"/>
    <ellipse id="Ellipse_69" data-name="Ellipse 69" class="cls-2" cx="4.979" cy="5.049" rx="4.979" ry="5.049" transform="translate(1074.884 2261.161)"/>
    <ellipse id="Ellipse_70" data-name="Ellipse 70" class="cls-2" cx="4.979" cy="5.049" rx="4.979" ry="5.049" transform="translate(1055.039 2261.161)"/>
    <ellipse id="Ellipse_71" data-name="Ellipse 71" class="cls-2" cx="4.979" cy="5.049" rx="4.979" ry="5.049" transform="translate(1035.195 2261.161)"/>
    <ellipse id="Ellipse_72" data-name="Ellipse 72" class="cls-2" cx="4.979" cy="5.049" rx="4.979" ry="5.049" transform="translate(1015.35 2261.161)"/>
    <path id="Path_251" data-name="Path 251" class="cls-3" d="M375.19,578.524v1.562a9.7,9.7,0,0,0,9.625,9.76h69.3a9.7,9.7,0,0,0,9.625-9.76v-1.562a9.772,9.772,0,0,0-2.233-6.246,9.96,9.96,0,0,0-1.625-1.561s-38.1-.875-38.1-1.952H384.815a9.706,9.706,0,0,0-9.625,9.76Z" transform="translate(660.919 1825.432)"/>
    <rect id="Rectangle_95" data-name="Rectangle 95" class="cls-3" width="10.01" height="65.586" transform="translate(1075.935 2414.89)"/>
    <path id="Path_252" data-name="Path 252" class="cls-3" d="M456.671,676.061c0,1.1-15.168.424-33.879.424s-33.879.673-33.879-.424,15.168-9.794,33.879-9.794S456.671,674.964,456.671,676.061Z" transform="translate(657.762 1804.058)"/>
    <path id="Path_253" data-name="Path 253" class="cls-4" d="M447,555.474a8.481,8.481,0,0,0,1.415-6.951,8.368,8.368,0,0,0-4.347-5.563l-21.215-73.3L406.7,477.679l25.933,69.533a8.491,8.491,0,0,0,3.565,10.6,8.243,8.243,0,0,0,10.8-2.341Z" transform="translate(653.671 1847.158)"/>
    <path id="Path_254" data-name="Path 254" class="cls-5" d="M426.373,476.861l-18.081,4.963a3.666,3.666,0,0,1-3.046-.515,3.769,3.769,0,0,1-1.606-2.675l-2.185-18.807a10.461,10.461,0,0,1,7.288-12.79,10.286,10.286,0,0,1,12.612,7.39l7.449,17.3a3.809,3.809,0,0,1-.056,3.131,3.722,3.722,0,0,1-2.374,2Z" transform="translate(654.959 1852.195)"/>
    <path id="Path_255" data-name="Path 255" class="cls-4" d="M313.516,443.131h9.44l4.491-24.826H313.514Z" transform="translate(791.882 2029.301)"/>
    <path id="Path_256" data-name="Path 256" class="cls-6" d="M462.051,664.962h18.591a11.931,11.931,0,0,1,11.847,12.014v.39H462.052Z" transform="translate(640.938 1804.344)"/>
    <path id="Path_257" data-name="Path 257" class="cls-6" d="M460.354,626.535q-.165,0-.331-.016l-13.064-.965a3.459,3.459,0,0,1-2.609-1.622,3.556,3.556,0,0,1-.324-3.086l17.483-39.831a2.766,2.766,0,0,0-.151-2.185,2.664,2.664,0,0,0-1.7-1.374c-8.221-2.179-29.314-7.982-47.574-14.771-7.823-2.909-12.75-7.112-14.644-12.494-2.5-7.095,1.2-13.565,1.356-13.837l.124-.213,17.182,1.584,18.626,1.607,40.819,22.2a15.788,15.788,0,0,1,6.79,20.132l-18.819,42.793a3.461,3.461,0,0,1-3.162,2.082Z" transform="translate(656 1832.584)"/>
    <ellipse id="Ellipse_73" data-name="Ellipse 73" class="cls-4" cx="18.911" cy="19.177" rx="18.911" ry="19.177" transform="translate(1056.176 2253.151)"/>
    <path id="Path_258" data-name="Path 258" class="cls-4" d="M306.516,442.131h9.44l4.491-24.826H306.514Z" transform="translate(793.492 2029.521)"/>
    <path id="Path_259" data-name="Path 259" class="cls-6" d="M455.051,663.962h18.591a11.931,11.931,0,0,1,11.847,12.014v.39H455.052Z" transform="translate(642.549 1804.564)"/>
    <path id="Path_260" data-name="Path 260" class="cls-6" d="M453.354,629.535q-.165,0-.331-.016l-13.064-.964a3.458,3.458,0,0,1-2.609-1.622,3.556,3.556,0,0,1-.324-3.086l17.483-39.831a2.766,2.766,0,0,0-.151-2.185,2.664,2.664,0,0,0-1.7-1.374c-8.221-2.179-29.314-7.982-47.574-14.771-7.823-2.909-12.75-7.112-14.644-12.494-2.5-7.095,1.2-13.565,1.355-13.837l.124-.213,17.182,1.584,18.626,1.607,40.819,22.2a15.788,15.788,0,0,1,6.79,20.132l-18.819,42.793A3.461,3.461,0,0,1,453.354,629.535Z" transform="translate(657.61 1831.926)"/>
    <path id="Path_261" data-name="Path 261" class="cls-6" d="M424.071,449.2l-20.019-7.027s-12.567,9.791-6.53,34.08a60.921,60.921,0,0,1-2.618,37.728,39.117,39.117,0,0,1-2.016,4.319s22.329,27.328,43.118,7.027l-8.085-39.43S440.625,459.736,424.071,449.2Z" transform="translate(656.848 1853.184)"/>
    <path id="Path_262" data-name="Path 262" class="cls-6" d="M419.827,423.8c-2.692-4.085-4.816-9.75-1.852-13.637,2.925-3.837,8.695-3.272,13.175-4.969,6.24-2.365,9.859-9.8,8.73-16.456s-6.4-12.176-12.677-14.434-13.358-1.524-19.506,1.077c-7.568,3.2-14.06,9.393-16.783,17.237s-1.267,17.262,4.381,23.29c6.055,6.464,15.558,8.186,24.349,8.082" transform="translate(657.608 1868.355)"/>
    <path id="Path_263" data-name="Path 263" class="cls-6" d="M379.883,390.51c-3.392,2.8-8.566,1.556-12.207-.9s-6.595-5.956-10.534-7.883c-6.945-3.4-15.341-1.139-22.1,2.624s-12.75,8.96-19.889,11.912-16.249,3.1-21.655-2.476a20.266,20.266,0,0,0,6.3,22.2,19.592,19.592,0,0,0,22.735,1.511c7.822-4.832,12.143-14.963,20.917-17.63,4.855-1.476,10.068-.287,14.975,1s10.023,2.678,14.975,1.582,9.584-5.608,8.954-10.708Z" transform="translate(679.96 1866.799)"/>
    <path id="Path_264" data-name="Path 264" class="cls-5" d="M485.52,612.906a132.6,132.6,0,0,1,0-39.8,3.327,3.327,0,0,1,3.262-2.815h30.7a3.253,3.253,0,0,1,2.583,1.27,3.409,3.409,0,0,1,.622,2.892,80.988,80.988,0,0,0,0,37.107,3.408,3.408,0,0,1-.621,2.893,3.253,3.253,0,0,1-2.583,1.27h-30.7a3.327,3.327,0,0,1-3.262-2.815Z" transform="translate(635.885 1825.098)"/>
    <path id="Path_265" data-name="Path 265" class="cls-7" d="M512.3,593.394h-16.11a2.329,2.329,0,0,1-2.31-2.342v-.915a2.329,2.329,0,0,1,2.31-2.342h16.111a2.329,2.329,0,0,1,2.31,2.342v.915a2.329,2.329,0,0,1-2.31,2.342Z" transform="translate(633.616 1821.261)"/>
    <path id="Path_266" data-name="Path 266" class="cls-7" d="M512.3,605.739h-16.11a2.329,2.329,0,0,1-2.31-2.342v-.915a2.329,2.329,0,0,1,2.31-2.342h16.111a2.329,2.329,0,0,1,2.31,2.342v.915a2.329,2.329,0,0,1-2.31,2.342Z" transform="translate(633.616 1818.555)"/>
    <path id="Path_267" data-name="Path 267" class="cls-4" d="M479.07,553.455a8.494,8.494,0,0,0-.342-7.089,8.286,8.286,0,0,0-5.579-4.285l-38.6-65.6L420.88,488.339,463.122,549.1a8.433,8.433,0,0,0,6.064,9.363,8.288,8.288,0,0,0,9.883-5Z" transform="translate(650.409 1845.663)"/>
    <path id="Path_268" data-name="Path 268" class="cls-6" d="M439.73,482.866l-16.285,9.387a3.663,3.663,0,0,1-3.077.273,3.733,3.733,0,0,1-2.214-2.184l-6.75-17.657a10.524,10.524,0,0,1,3.906-14.23,10.224,10.224,0,0,1,14.033,3.961l11.474,14.863a3.8,3.8,0,0,1,.717,3.046,3.759,3.759,0,0,1-1.806,2.541Z" transform="translate(652.895 1849.91)"/>
    <path id="Path_269" data-name="Path 269" class="cls-1" d="M578.742,519.614H266.135a5.076,5.076,0,0,0,0,10.15h8.855V640.245a5.005,5.005,0,1,0,10.01,0V539.516l56.108,103.125a4.967,4.967,0,0,0,6.837,1.858,5.114,5.114,0,0,0,1.832-6.933l-58.653-107.8H559.108v.066L500.491,637.566a5.114,5.114,0,0,0,1.832,6.933,4.967,4.967,0,0,0,6.836-1.857l49.949-91.8v89.408a5.005,5.005,0,1,0,10.01,0V532.44l1.456-2.676h8.169a5.076,5.076,0,0,0,0-10.15Z" transform="translate(687.157 1836.207)"/>
    <rect id="Rectangle_96" data-name="Rectangle 96" class="cls-3" width="66.217" height="5.465" rx="2.733" transform="translate(1073.021 2352.698)"/>
    <path id="Path_270" data-name="Path 270" class="cls-3" d="M536.662,509.023H468.135a5.046,5.046,0,0,1-5-5.075V465.689a5.046,5.046,0,0,1,5-5.075h68.527a5.046,5.046,0,0,1,5,5.075v38.258A5.046,5.046,0,0,1,536.662,509.023Z" transform="translate(640.69 1849.14)"/>
    <ellipse id="Ellipse_74" data-name="Ellipse 74" class="cls-7" cx="4.62" cy="4.685" rx="4.62" ry="4.685" transform="translate(1138.468 2329.274)"/>
    <path id="Path_271" data-name="Path 271" class="cls-8" d="M626.55,361.765V224.737a5.839,5.839,0,0,1,5.791-5.873H739.158a5.839,5.839,0,0,1,5.791,5.873V361.765a5.839,5.839,0,0,1-5.791,5.873H632.342A5.839,5.839,0,0,1,626.55,361.765Zm5.791-141.6a4.541,4.541,0,0,0-4.5,4.568V361.765a4.541,4.541,0,0,0,4.5,4.568H739.158a4.541,4.541,0,0,0,4.5-4.568V224.737a4.541,4.541,0,0,0-4.5-4.568Z" transform="translate(603.099 1902.135)"/>
    <path id="Path_272" data-name="Path 272" class="cls-5" d="M711.215,290.738V262.6a2.919,2.919,0,0,1,2.9-2.936h23.513a2.919,2.919,0,0,1,2.9,2.936v28.136a2.919,2.919,0,0,1-2.9,2.936H714.111a2.919,2.919,0,0,1-2.9-2.936Z" transform="translate(583.623 1893.191)"/>
    <path id="Path_273" data-name="Path 273" class="cls-3" d="M651.88,307.452V279.316a2.919,2.919,0,0,1,2.9-2.936h23.513a2.919,2.919,0,0,1,2.9,2.936v28.136a2.919,2.919,0,0,1-2.9,2.936H654.776A2.919,2.919,0,0,1,651.88,307.452Z" transform="translate(597.272 1889.527)"/>
    <path id="Path_274" data-name="Path 274" class="cls-9" d="M699.515,358.431V330.295a2.919,2.919,0,0,1,2.9-2.936h23.513a2.92,2.92,0,0,1,2.9,2.936v28.136a2.919,2.919,0,0,1-2.9,2.936H702.411a2.919,2.919,0,0,1-2.9-2.936Z" transform="translate(586.314 1878.352)"/>
    <ellipse id="Ellipse_75" data-name="Ellipse 75" class="cls-2" cx="4.979" cy="5.049" rx="4.979" ry="5.049" transform="translate(1460.167 2125.179)"/>
    <ellipse id="Ellipse_76" data-name="Ellipse 76" class="cls-2" cx="4.979" cy="5.049" rx="4.979" ry="5.049" transform="translate(1460.167 2145.303)"/>
    <ellipse id="Ellipse_77" data-name="Ellipse 77" class="cls-2" cx="4.979" cy="5.049" rx="4.979" ry="5.049" transform="translate(1460.167 2165.426)"/>
    <ellipse id="Ellipse_78" data-name="Ellipse 78" class="cls-2" cx="4.979" cy="5.049" rx="4.979" ry="5.049" transform="translate(1460.167 2185.55)"/>
    <ellipse id="Ellipse_79" data-name="Ellipse 79" class="cls-2" cx="4.979" cy="5.049" rx="4.979" ry="5.049" transform="translate(1439.377 2125.179)"/>
    <ellipse id="Ellipse_80" data-name="Ellipse 80" class="cls-2" cx="4.979" cy="5.049" rx="4.979" ry="5.049" transform="translate(1439.377 2145.303)"/>
    <ellipse id="Ellipse_81" data-name="Ellipse 81" class="cls-2" cx="4.979" cy="5.049" rx="4.979" ry="5.049" transform="translate(1439.377 2165.426)"/>
    <ellipse id="Ellipse_82" data-name="Ellipse 82" class="cls-2" cx="4.979" cy="5.049" rx="4.979" ry="5.049" transform="translate(1439.377 2185.55)"/>
    <ellipse id="Ellipse_83" data-name="Ellipse 83" class="cls-2" cx="4.979" cy="5.049" rx="4.979" ry="5.049" transform="translate(1418.588 2125.179)"/>
    <ellipse id="Ellipse_84" data-name="Ellipse 84" class="cls-2" cx="4.979" cy="5.049" rx="4.979" ry="5.049" transform="translate(1418.588 2145.303)"/>
    <ellipse id="Ellipse_85" data-name="Ellipse 85" class="cls-2" cx="4.979" cy="5.049" rx="4.979" ry="5.049" transform="translate(1418.588 2165.426)"/>
    <ellipse id="Ellipse_86" data-name="Ellipse 86" class="cls-2" cx="4.979" cy="5.049" rx="4.979" ry="5.049" transform="translate(1418.588 2185.55)"/>
    <ellipse id="Ellipse_87" data-name="Ellipse 87" class="cls-2" cx="4.979" cy="5.049" rx="4.979" ry="5.049" transform="translate(1397.799 2125.179)"/>
    <ellipse id="Ellipse_88" data-name="Ellipse 88" class="cls-2" cx="4.979" cy="5.049" rx="4.979" ry="5.049" transform="translate(1397.799 2145.303)"/>
    <ellipse id="Ellipse_89" data-name="Ellipse 89" class="cls-2" cx="4.979" cy="5.049" rx="4.979" ry="5.049" transform="translate(1397.799 2165.426)"/>
    <ellipse id="Ellipse_90" data-name="Ellipse 90" class="cls-2" cx="4.979" cy="5.049" rx="4.979" ry="5.049" transform="translate(1397.799 2185.55)"/>
    <ellipse id="Ellipse_91" data-name="Ellipse 91" class="cls-2" cx="4.979" cy="5.049" rx="4.979" ry="5.049" transform="translate(1377.01 2125.179)"/>
    <ellipse id="Ellipse_92" data-name="Ellipse 92" class="cls-2" cx="4.979" cy="5.049" rx="4.979" ry="5.049" transform="translate(1377.01 2145.303)"/>
    <ellipse id="Ellipse_93" data-name="Ellipse 93" class="cls-2" cx="4.979" cy="5.049" rx="4.979" ry="5.049" transform="translate(1377.01 2165.426)"/>
    <ellipse id="Ellipse_94" data-name="Ellipse 94" class="cls-2" cx="4.979" cy="5.049" rx="4.979" ry="5.049" transform="translate(1377.01 2185.55)"/>
    <ellipse id="Ellipse_95" data-name="Ellipse 95" class="cls-2" cx="4.979" cy="5.049" rx="4.979" ry="5.049" transform="translate(1356.221 2125.179)"/>
    <ellipse id="Ellipse_96" data-name="Ellipse 96" class="cls-2" cx="4.979" cy="5.049" rx="4.979" ry="5.049" transform="translate(1356.221 2145.303)"/>
    <ellipse id="Ellipse_97" data-name="Ellipse 97" class="cls-2" cx="4.979" cy="5.049" rx="4.979" ry="5.049" transform="translate(1356.221 2165.426)"/>
    <ellipse id="Ellipse_98" data-name="Ellipse 98" class="cls-2" cx="4.979" cy="5.049" rx="4.979" ry="5.049" transform="translate(1356.221 2185.55)"/>
    <path id="Path_275" data-name="Path 275" class="cls-10" d="M823.3,442.662a8.7,8.7,0,0,1,.5-7,8.49,8.49,0,0,1,5.484-4.289,8.055,8.055,0,0,1,1.117-.185l18.712-33.26-4.725-8.231,11.762-9.2,9,12.674a8.8,8.8,0,0,1-.2,10.391l-25.69,33.35a8.3,8.3,0,0,1,.239.808,8.69,8.69,0,0,1-1.277,6.9,8.454,8.454,0,0,1-5.929,3.63,8.131,8.131,0,0,1-1.037.066,8.5,8.5,0,0,1-7.951-5.65Z" transform="translate(557.957 1866.704)"/>
    <path id="Path_276" data-name="Path 276" class="cls-10" d="M620.218,440.522h-9.44l-4.49-36.922H620.22Z" transform="translate(724.535 2032.525)"/>
    <path id="Path_277" data-name="Path 277" class="cls-6" d="M599.938,447.384h18.205v11.623H588.476A11.544,11.544,0,0,1,599.938,447.384Z" transform="translate(728.632 2022.927)"/>
    <path id="Path_278" data-name="Path 278" class="cls-10" d="M721.218,440.522h-9.44l-4.49-36.922H721.22Z" transform="translate(701.301 2032.525)"/>
    <path id="Path_279" data-name="Path 279" class="cls-6" d="M700.938,447.384h18.205v11.623H689.476A11.544,11.544,0,0,1,700.938,447.384Z" transform="translate(705.399 2022.927)"/>
    <path id="Path_280" data-name="Path 280" class="cls-5" d="M861.488,377.716,840.3,385.883l-5.174-14.575a8.777,8.777,0,0,1,3.851-10.54h0a8.52,8.52,0,0,1,10.982,2.174Z" transform="translate(555.238 1871.277)"/>
    <path id="Path_281" data-name="Path 281" class="cls-6" d="M770.9,590.267l-17.774-4.111a3.891,3.891,0,0,1-2.935-4.387c7.132-45.839,13.994-72.684,31.677-106.774.247-.636,3.008-13.537,4.81-22.085a3.867,3.867,0,0,1,3.245-3.923l33.143-5.172a4.233,4.233,0,0,1,1.556-.238l.331.064,0,.331c0,.342-.339.394-.465.414l-.441.069a5.142,5.142,0,0,1,1.367.942c14.521,17.711,22.073,75.767,31.663,139.905a3.53,3.53,0,0,1-1,2.848,3.775,3.775,0,0,1-2.724,1.25l-21.175.523a3.852,3.852,0,0,1-3.877-3.294l-14.263-83.583a3.082,3.082,0,0,0-2.559-2.6,3.05,3.05,0,0,0-3.212,1.7c-11.507,23.763-22.237,44.313-32.806,85.313a3.8,3.8,0,0,1-4.553,2.811Z" transform="translate(574.667 1852.875)"/>
    <path id="Path_282" data-name="Path 282" class="cls-5" d="M798.671,435.361a3.913,3.913,0,0,1-1.6-2.771c-2.714-25.7-.824-45.8,5.779-61.475A19.321,19.321,0,0,1,815.6,360.043l17.132-.877.089.043a20.379,20.379,0,0,1,10.948,21.541c-5.51,14.728-10.124,30.063-6.605,42.433a4.049,4.049,0,0,1-.373,3.11,3.765,3.765,0,0,1-2.4,1.8l-32.63,7.871a3.779,3.779,0,0,1-3.093-.607Z" transform="translate(564.15 1871.379)"/>
    <path id="Path_283" data-name="Path 283" class="cls-10" d="M776.766,397.454l-32.858-26.286a7.994,7.994,0,0,1-.8.239,8.4,8.4,0,0,1-6.789-1.321,8.642,8.642,0,0,1,1.988-15.125,8.368,8.368,0,0,1,6.905.538,8.577,8.577,0,0,1,4.2,5.582,8.363,8.363,0,0,1,.176,1.134L782.3,381.349l8.14-4.752,9.017,11.971L786.821,397.7a8.332,8.332,0,0,1-10.055-.249Z" transform="translate(578.68 1872.412)"/>
    <path id="Path_284" data-name="Path 284" class="cls-5" d="M819.01,394.7l-18.748-12.928,8.811-12.654a8.528,8.528,0,0,1,10.725-2.842h0a8.763,8.763,0,0,1,4.539,10.371Z" transform="translate(563.139 1870.006)"/>
    <ellipse id="Ellipse_99" data-name="Ellipse 99" class="cls-10" cx="18.911" cy="19.177" rx="18.911" ry="19.177" transform="translate(1372.254 2185.703)"/>
    <path id="Path_285" data-name="Path 285" class="cls-6" d="M821.421,315.994c-4.861,3.373-11.243,6.841-16.207,3.249a9.239,9.239,0,0,1-2.965-10.56c2.377-6.893,8.908-9.928,15.153-12.254,8.119-3.024,16.959-5.43,25.34-3.264s15.789,10.395,14.276,19.03c-1.217,6.944-7.677,12.723-6.76,19.715.923,7.037,8.727,10.74,15.616,12s14.6,1.662,19.55,6.68c6.316,6.4,4.739,17.844-1.2,24.6s-14.912,9.822-23.6,11.905c-11.515,2.759-23.968,4.21-34.9-.37s-19.446-16.907-16.278-28.467c1.338-4.883,4.49-9.01,7.537-13.027s6.131-8.219,7.293-13.148c.969-4.108.252-8.877-2.434-11.958a3.5,3.5,0,0,1-.458-4.05Z" transform="translate(562.811 1886.03)"/>
  </g>
</svg>
