<svg xmlns="http://www.w3.org/2000/svg" viewBox="0 0 563.762 360.743">
  <defs>
    <style>
      .cls-1 {
        fill: #e6e6e6;
      }

      .cls-2 {
        fill: #f2f2f2;
      }

      .cls-3 {
        fill: #ccc;
      }

      .cls-4 {
        fill: #a0616a;
      }

      .cls-5 {
        fill: #2f2e41;
      }

      .cls-6 {
        fill: #14348e;
      }

      .cls-7 {
        fill: #3f3d56;
      }

      .cls-8 {
        fill: #f50057;
      }

      .cls-9 {
        fill: #fff;
      }

      .cls-10 {
        fill: #ffb8b8;
      }
    </style>
  </defs>
  <g id="undraw_Work_time_re_hdyv" transform="translate(0 0)">
    <path id="Path_6" data-name="Path 6" class="cls-1" d="M340.817,330.608A92.9,92.9,0,0,1,348.5,301.29q1.735-3.876,3.82-7.581a.566.566,0,0,0-.977-.571,94.175,94.175,0,0,0-10.479,28.91q-.787,4.25-1.183,8.56C339.619,331.332,340.75,331.328,340.817,330.608Z" transform="translate(-255.941 -232.098)"/>
    <ellipse id="Ellipse_1" data-name="Ellipse 1" class="cls-1" cx="7.166" cy="7.166" rx="7.166" ry="7.166" transform="translate(91.958 49.094)"/>
    <path id="Path_7" data-name="Path 7" class="cls-1" d="M341.905,335.017A60.263,60.263,0,0,1,346.893,316q1.126-2.515,2.478-4.919a.367.367,0,0,0-.634-.37,61.1,61.1,0,0,0-6.8,18.755q-.511,2.757-.767,5.553C341.128,335.487,341.862,335.484,341.905,335.017Z" transform="translate(-256.296 -236.317)"/>
    <ellipse id="Ellipse_2" data-name="Ellipse 2" class="cls-1" cx="4.649" cy="4.649" rx="4.649" ry="4.649" transform="translate(90.204 66.642)"/>
    <path id="Path_8" data-name="Path 8" class="cls-1" d="M337.917,334.662a60.264,60.264,0,0,1-7.766-18.064q-.659-2.675-1.071-5.4a.367.367,0,0,0-.728.1,61.1,61.1,0,0,0,6.175,18.97q1.293,2.488,2.811,4.85C337.593,335.511,338.17,335.057,337.917,334.662Z" transform="translate(-253.234 -236.401)"/>
    <ellipse id="Ellipse_3" data-name="Ellipse 3" class="cls-1" cx="4.649" cy="4.649" rx="4.649" ry="4.649" transform="translate(70.464 66.315)"/>
    <path id="Path_9" data-name="Path 9" class="cls-2" d="M322.169,343.585v-9.134a3.429,3.429,0,0,1,3.425-3.425h21.312a3.429,3.429,0,0,1,3.425,3.425v9.134a3.429,3.429,0,0,1-3.425,3.425H325.594a3.429,3.429,0,0,1-3.425-3.425Z" transform="translate(-251.758 -241.211)"/>
    <path id="Path_10" data-name="Path 10" class="cls-2" d="M349.728,257.172h-9.134a3.429,3.429,0,0,1-3.425-3.425v-37.3a3.429,3.429,0,0,1,3.425-3.425h9.134a3.429,3.429,0,0,1,3.425,3.425v37.3A3.429,3.429,0,0,1,349.728,257.172Z" transform="translate(-255.341 -213.026)"/>
    <rect id="Rectangle_6" data-name="Rectangle 6" class="cls-3" width="15.223" height="3.045" transform="translate(82.209 7.231)"/>
    <rect id="Rectangle_7" data-name="Rectangle 7" class="cls-3" width="15.223" height="3.045" transform="translate(82.209 30.826)"/>
    <path id="Path_11" data-name="Path 11" class="cls-2" d="M379.728,257.172h-9.134a3.429,3.429,0,0,1-3.425-3.425v-37.3a3.429,3.429,0,0,1,3.425-3.425h9.134a3.429,3.429,0,0,1,3.425,3.425v37.3A3.429,3.429,0,0,1,379.728,257.172Z" transform="translate(-262.506 -213.026)"/>
    <rect id="Rectangle_8" data-name="Rectangle 8" class="cls-3" width="15.223" height="3.045" transform="translate(105.044 7.231)"/>
    <rect id="Rectangle_9" data-name="Rectangle 9" class="cls-3" width="15.223" height="3.045" transform="translate(105.044 30.826)"/>
    <path id="Path_12" data-name="Path 12" class="cls-2" d="M409.728,257.172h-9.134a3.429,3.429,0,0,1-3.425-3.425v-37.3a3.429,3.429,0,0,1,3.425-3.425h9.134a3.429,3.429,0,0,1,3.425,3.425v37.3A3.429,3.429,0,0,1,409.728,257.172Z" transform="translate(-269.672 -213.026)"/>
    <rect id="Rectangle_10" data-name="Rectangle 10" class="cls-3" width="15.223" height="3.045" transform="translate(127.878 7.231)"/>
    <rect id="Rectangle_11" data-name="Rectangle 11" class="cls-3" width="15.223" height="3.045" transform="translate(127.878 30.826)"/>
    <path id="Path_13" data-name="Path 13" class="cls-2" d="M425.728,338.172h-9.134a3.429,3.429,0,0,1-3.425-3.425v-37.3a3.429,3.429,0,0,1,3.425-3.425h9.134a3.429,3.429,0,0,1,3.425,3.425v37.3A3.429,3.429,0,0,1,425.728,338.172Z" transform="translate(-273.493 -232.373)"/>
    <rect id="Rectangle_12" data-name="Rectangle 12" class="cls-3" width="15.223" height="3.045" transform="translate(140.056 68.884)"/>
    <rect id="Rectangle_13" data-name="Rectangle 13" class="cls-3" width="15.223" height="3.045" transform="translate(140.056 92.479)"/>
    <path id="Path_14" data-name="Path 14" class="cls-2" d="M455.728,338.172h-9.134a3.429,3.429,0,0,1-3.425-3.425v-37.3a3.429,3.429,0,0,1,3.425-3.425h9.134a3.429,3.429,0,0,1,3.425,3.425v37.3A3.429,3.429,0,0,1,455.728,338.172Z" transform="translate(-280.659 -232.373)"/>
    <rect id="Rectangle_14" data-name="Rectangle 14" class="cls-3" width="15.223" height="3.045" transform="translate(162.891 68.884)"/>
    <rect id="Rectangle_15" data-name="Rectangle 15" class="cls-3" width="15.223" height="3.045" transform="translate(162.891 92.479)"/>
    <path id="Path_15" data-name="Path 15" class="cls-2" d="M485.728,338.172h-9.134a3.429,3.429,0,0,1-3.425-3.425v-37.3a3.429,3.429,0,0,1,3.425-3.425h9.134a3.429,3.429,0,0,1,3.425,3.425v37.3A3.429,3.429,0,0,1,485.728,338.172Z" transform="translate(-287.825 -232.373)"/>
    <rect id="Rectangle_16" data-name="Rectangle 16" class="cls-3" width="15.223" height="3.045" transform="translate(185.725 68.884)"/>
    <rect id="Rectangle_17" data-name="Rectangle 17" class="cls-3" width="15.223" height="3.045" transform="translate(185.725 92.479)"/>
    <path id="Path_16" data-name="Path 16" class="cls-2" d="M346.728,419.172h-9.134a3.429,3.429,0,0,1-3.425-3.425v-37.3a3.429,3.429,0,0,1,3.425-3.425h9.134a3.429,3.429,0,0,1,3.425,3.425v37.3A3.429,3.429,0,0,1,346.728,419.172Z" transform="translate(-254.624 -251.72)"/>
    <rect id="Rectangle_18" data-name="Rectangle 18" class="cls-3" width="15.223" height="3.045" transform="translate(79.926 130.536)"/>
    <rect id="Rectangle_19" data-name="Rectangle 19" class="cls-3" width="15.223" height="3.045" transform="translate(79.926 154.132)"/>
    <path id="Path_17" data-name="Path 17" class="cls-2" d="M376.728,419.172h-9.134a3.429,3.429,0,0,1-3.425-3.425v-37.3a3.429,3.429,0,0,1,3.425-3.425h9.134a3.429,3.429,0,0,1,3.425,3.425v37.3A3.429,3.429,0,0,1,376.728,419.172Z" transform="translate(-261.79 -251.72)"/>
    <rect id="Rectangle_20" data-name="Rectangle 20" class="cls-3" width="15.223" height="3.045" transform="translate(102.76 130.536)"/>
    <rect id="Rectangle_21" data-name="Rectangle 21" class="cls-3" width="15.223" height="3.045" transform="translate(102.76 154.132)"/>
    <path id="Path_18" data-name="Path 18" class="cls-2" d="M406.728,419.172h-9.134a3.429,3.429,0,0,1-3.425-3.425v-37.3a3.429,3.429,0,0,1,3.425-3.425h9.134a3.429,3.429,0,0,1,3.425,3.425v37.3A3.429,3.429,0,0,1,406.728,419.172Z" transform="translate(-268.955 -251.72)"/>
    <rect id="Rectangle_22" data-name="Rectangle 22" class="cls-3" width="15.223" height="3.045" transform="translate(125.595 130.536)"/>
    <rect id="Rectangle_23" data-name="Rectangle 23" class="cls-3" width="15.223" height="3.045" transform="translate(125.595 154.132)"/>
    <path id="Path_19" data-name="Path 19" class="cls-2" d="M439.728,257.172h-9.134a3.429,3.429,0,0,1-3.425-3.425v-37.3a3.429,3.429,0,0,1,3.425-3.425h9.134a3.429,3.429,0,0,1,3.425,3.425v37.3A3.429,3.429,0,0,1,439.728,257.172Z" transform="translate(-276.837 -213.026)"/>
    <rect id="Rectangle_24" data-name="Rectangle 24" class="cls-3" width="15.223" height="3.045" transform="translate(150.712 7.231)"/>
    <rect id="Rectangle_25" data-name="Rectangle 25" class="cls-3" width="15.223" height="3.045" transform="translate(150.712 30.826)"/>
    <path id="Path_20" data-name="Path 20" class="cls-2" d="M469.728,257.172h-9.134a3.429,3.429,0,0,1-3.425-3.425v-37.3a3.429,3.429,0,0,1,3.425-3.425h9.134a3.429,3.429,0,0,1,3.425,3.425v37.3a3.429,3.429,0,0,1-3.425,3.425Z" transform="translate(-284.003 -213.026)"/>
    <rect id="Rectangle_26" data-name="Rectangle 26" class="cls-3" width="15.223" height="3.045" transform="translate(173.547 7.231)"/>
    <rect id="Rectangle_27" data-name="Rectangle 27" class="cls-3" width="15.223" height="3.045" transform="translate(173.547 30.826)"/>
    <path id="Path_21" data-name="Path 21" class="cls-2" d="M499.728,257.172h-9.134a3.429,3.429,0,0,1-3.425-3.425v-37.3a3.429,3.429,0,0,1,3.425-3.425h9.134a3.429,3.429,0,0,1,3.425,3.425v37.3a3.429,3.429,0,0,1-3.425,3.425Z" transform="translate(-291.169 -213.026)"/>
    <rect id="Rectangle_28" data-name="Rectangle 28" class="cls-3" width="15.223" height="3.045" transform="translate(196.381 7.231)"/>
    <rect id="Rectangle_29" data-name="Rectangle 29" class="cls-3" width="15.223" height="3.045" transform="translate(196.381 30.826)"/>
    <path id="Path_22" data-name="Path 22" class="cls-2" d="M529.728,257.172h-9.134a3.429,3.429,0,0,1-3.425-3.425v-37.3a3.429,3.429,0,0,1,3.425-3.425h9.134a3.429,3.429,0,0,1,3.425,3.425v37.3A3.429,3.429,0,0,1,529.728,257.172Z" transform="translate(-298.334 -213.026)"/>
    <rect id="Rectangle_30" data-name="Rectangle 30" class="cls-3" width="15.223" height="3.045" transform="translate(219.216 7.231)"/>
    <rect id="Rectangle_31" data-name="Rectangle 31" class="cls-3" width="15.223" height="3.045" transform="translate(219.216 30.826)"/>
    <path id="Path_23" data-name="Path 23" class="cls-3" d="M510.3,272.048H293.371a.761.761,0,0,1,0-1.522H510.3a.761.761,0,1,1,0,1.522Z" transform="translate(-244.698 -226.76)"/>
    <path id="Path_24" data-name="Path 24" class="cls-3" d="M510.3,353.048H293.371a.761.761,0,0,1,0-1.522H510.3a.761.761,0,1,1,0,1.522Z" transform="translate(-244.698 -246.107)"/>
    <path id="Path_25" data-name="Path 25" class="cls-3" d="M510.3,434.048H293.371a.761.761,0,0,1,0-1.522H510.3a.761.761,0,1,1,0,1.522Z" transform="translate(-244.698 -265.454)"/>
    <path id="Path_26" data-name="Path 26" class="cls-3" d="M530.681,588.164c0-5.885-22.151-10.656-49.475-10.656s-49.474,4.771-49.474,10.656c0,3.772,9.107,7.083,22.834,8.977v58.384a4.948,4.948,0,0,0,9.9,0V598.193c5.231.405,10.867.627,16.745.627s11.515-.222,16.745-.627v57.333a4.947,4.947,0,1,0,9.895,0V597.141C521.575,595.247,530.681,591.935,530.681,588.164Z" transform="translate(-277.927 -300.084)"/>
    <path id="Path_27" data-name="Path 27" class="cls-4" d="M319.563,449.611h9.332l4.439-35.993H319.561Z" transform="translate(-76.328 -98.795)"/>
    <path id="Path_28" data-name="Path 28" class="cls-5" d="M0,0H29.328V11.331h-18A11.331,11.331,0,0,1,0,0H0Z" transform="translate(270.561 359.482) rotate(179.997)"/>
    <path id="Path_29" data-name="Path 29" class="cls-4" d="M335.319,441.993l8.9-2.794-6.54-35.671-13.14,4.123Z" transform="translate(-77.518 -96.385)"/>
    <path id="Path_30" data-name="Path 30" class="cls-5" d="M0,0H29.328V11.331h-18A11.331,11.331,0,0,1,0,0H0Z" transform="translate(286.47 345.695) rotate(162.577)"/>
    <path id="Path_31" data-name="Path 31" class="cls-5" d="M539.072,622.4,522,577.591c-3.83.9-35.946,8.006-46.7-3.447-3.686-3.925-4.405-9.613-2.137-16.9l6.278-7.889.2.01c2.374.125,58.178,3.253,62,20.086,3.225,14.191,9.116,40.649,10.844,48.42a3.437,3.437,0,0,1-2.142,3.945l-6.865,2.574a3.4,3.4,0,0,1-1.2.218,3.435,3.435,0,0,1-3.207-2.2Z" transform="translate(-287.514 -293.359)"/>
    <path id="Path_32" data-name="Path 32" class="cls-5" d="M526.072,629.4,509,584.591c-3.83.9-35.946,8.006-46.7-3.447-3.687-3.925-4.405-9.612-2.137-16.9l6.278-7.889.2.01c2.374.125,58.178,3.253,62,20.086,3.225,14.191,9.116,40.649,10.844,48.42a3.437,3.437,0,0,1-2.142,3.945l-6.865,2.574a3.4,3.4,0,0,1-1.2.218,3.435,3.435,0,0,1-3.207-2.2Z" transform="translate(-284.409 -295.031)"/>
    <path id="Path_33" data-name="Path 33" class="cls-4" d="M559.938,510.21a8.038,8.038,0,0,0-.674,1.067l-37.54,3.955-5.4-7.409-12.247,6.694L514.687,532.5l46.04-11.739a7.989,7.989,0,1,0-.789-10.547Z" transform="translate(-295.206 -283.254)"/>
    <path id="Path_34" data-name="Path 34" class="cls-6" d="M458.873,546.718a3.431,3.431,0,0,1-1.384-3.31c2.118-13.962-.319-33.962-2.736-48.281a18.873,18.873,0,0,1,20.977-21.892,60.8,60.8,0,0,1,7.545,1.487h0a18.721,18.721,0,0,1,14.144,18.624c-.361,13.818,2.444,31.059,3.667,37.83a3.439,3.439,0,0,1-.635,2.672,3.342,3.342,0,0,1-2.356,1.332c-13.555,1.383-28.172,7.994-35.678,11.81a3.426,3.426,0,0,1-1.56.381A3.37,3.37,0,0,1,458.873,546.718Z" transform="translate(-283.362 -275.142)"/>
    <path id="Path_35" data-name="Path 35" class="cls-6" d="M505.131,512.623a3.4,3.4,0,0,1-1.883-1.825l-7.559-17.463a8.753,8.753,0,1,1,16.066-6.954l7.559,17.463a3.429,3.429,0,0,1-1.783,4.5l-9.779,4.233a3.4,3.4,0,0,1-2.621.042Z" transform="translate(-293.031 -277.057)"/>
    <path id="Path_36" data-name="Path 36" class="cls-4" d="M512.938,508.21a8.019,8.019,0,0,0-.673,1.067l-37.54,3.955-5.4-7.409-12.247,6.694L467.687,530.5l46.04-11.739a7.989,7.989,0,1,0-.789-10.547Z" transform="translate(-283.98 -282.777)"/>
    <path id="Path_37" data-name="Path 37" class="cls-6" d="M458.131,513.623a3.4,3.4,0,0,1-1.883-1.825l-7.559-17.463a8.753,8.753,0,0,1,16.066-6.954l7.56,17.463a3.429,3.429,0,0,1-1.783,4.5l-9.779,4.233A3.4,3.4,0,0,1,458.131,513.623Z" transform="translate(-281.805 -277.296)"/>
    <ellipse id="Ellipse_4" data-name="Ellipse 4" class="cls-4" cx="18.695" cy="18.694" rx="18.695" ry="18.694" transform="translate(172.282 154.764)"/>
    <path id="Path_38" data-name="Path 38" class="cls-5" d="M460.124,445.581a1.625,1.625,0,0,1,1.413-2.146,3.752,3.752,0,0,1,2.646,1.305,10.53,10.53,0,0,0,2.337,2.007,2.011,2.011,0,0,0,2.646-.478c.484-.816.152-1.909-.141-2.857a28.092,28.092,0,0,1-1.241-7.436c-.084-2.816.313-5.756,1.872-7.952,2.013-2.835,5.611-3.911,9.016-3.833s6.755,1.129,10.129,1.794c1.164.229,2.533.347,3.312-.556.828-.96.524-2.513.172-3.809-.914-3.362-1.884-6.839-4.008-9.554a14.385,14.385,0,0,0-9.18-5.168,22.027,22.027,0,0,0-10.247,1.163,27.474,27.474,0,0,0-13.459,9.376,22.253,22.253,0,0,0-4.246,16.441,20.3,20.3,0,0,0,7.524,12.829Z" transform="translate(-282.513 -259.293)"/>
    <path id="Path_39" data-name="Path 39" class="cls-7" d="M368.872,505.061a92.891,92.891,0,0,1,7.688-29.317q1.735-3.876,3.82-7.582a.566.566,0,0,0-.977-.571,94.176,94.176,0,0,0-10.479,28.91q-.787,4.25-1.183,8.56C367.674,505.785,368.805,505.781,368.872,505.061Z" transform="translate(-262.642 -273.767)"/>
    <ellipse id="Ellipse_5" data-name="Ellipse 5" class="cls-8" cx="7.166" cy="7.166" rx="7.166" ry="7.166" transform="translate(113.312 181.878)"/>
    <path id="Path_40" data-name="Path 40" class="cls-7" d="M369.96,509.47a60.263,60.263,0,0,1,4.987-19.019q1.126-2.515,2.478-4.919a.367.367,0,0,0-.634-.37,61.1,61.1,0,0,0-6.8,18.755q-.51,2.757-.767,5.553C369.183,509.94,369.917,509.937,369.96,509.47Z" transform="translate(-262.997 -277.986)"/>
    <ellipse id="Ellipse_6" data-name="Ellipse 6" class="cls-8" cx="4.649" cy="4.649" rx="4.649" ry="4.649" transform="translate(111.558 199.426)"/>
    <path id="Path_41" data-name="Path 41" class="cls-7" d="M365.972,509.116a60.261,60.261,0,0,1-7.766-18.064q-.659-2.675-1.071-5.4a.367.367,0,0,0-.728.1,61.1,61.1,0,0,0,6.175,18.97q1.293,2.488,2.811,4.85C365.648,509.965,366.225,509.511,365.972,509.116Z" transform="translate(-259.935 -278.07)"/>
    <ellipse id="Ellipse_7" data-name="Ellipse 7" class="cls-8" cx="4.649" cy="4.649" rx="4.649" ry="4.649" transform="translate(91.817 199.1)"/>
    <path id="Path_42" data-name="Path 42" class="cls-3" d="M350.224,518.038V508.9a3.429,3.429,0,0,1,3.425-3.425h21.312a3.429,3.429,0,0,1,3.425,3.425v9.134a3.429,3.429,0,0,1-3.425,3.425H353.649A3.429,3.429,0,0,1,350.224,518.038Z" transform="translate(-258.459 -282.88)"/>
    <rect id="Rectangle_32" data-name="Rectangle 32" class="cls-3" width="65.459" height="5.328" rx="2.664" transform="translate(220.025 232.516)"/>
    <path id="Path_43" data-name="Path 43" class="cls-3" d="M631.422,510.7H563.679a4.953,4.953,0,0,1-4.947-4.948v-37.3a4.953,4.953,0,0,1,4.947-4.947h67.742a4.953,4.953,0,0,1,4.948,4.947v37.3a4.953,4.953,0,0,1-4.948,4.948Z" transform="translate(-308.262 -272.855)"/>
    <ellipse id="Ellipse_8" data-name="Ellipse 8" class="cls-9" cx="4.567" cy="4.567" rx="4.567" ry="4.567" transform="translate(284.722 209.682)"/>
    <path id="Path_44" data-name="Path 44" class="cls-3" d="M849.681,588.164c0-5.885-22.151-10.656-49.475-10.656s-49.474,4.771-49.474,10.656c0,3.772,9.107,7.083,22.834,8.977v58.384a4.947,4.947,0,1,0,9.895,0V598.193c5.231.405,10.867.627,16.745.627s11.515-.222,16.745-.627v57.333a4.948,4.948,0,1,0,9.9,0V597.141C840.575,595.247,849.681,591.935,849.681,588.164Z" transform="translate(-354.122 -300.084)"/>
    <ellipse id="Ellipse_9" data-name="Ellipse 9" class="cls-5" cx="21.312" cy="21.312" rx="21.312" ry="21.312" transform="translate(430.244 147.921)"/>
    <path id="Path_45" data-name="Path 45" class="cls-10" d="M519.256,450.611h-9.332l-4.439-35.993h13.772Z" transform="translate(-120.737 -99.034)"/>
    <path id="Path_46" data-name="Path 46" class="cls-5" d="M499,458.4h18v11.331H487.673A11.331,11.331,0,0,1,499,458.4Z" transform="translate(-116.482 -109.492)"/>
    <path id="Path_47" data-name="Path 47" class="cls-10" d="M501.645,442.993l-8.9-2.794,6.54-35.671,13.141,4.123Z" transform="translate(-117.693 -96.624)"/>
    <path id="Path_48" data-name="Path 48" class="cls-5" d="M11.331,0h18V11.331H0A11.331,11.331,0,0,1,11.331,0Z" transform="translate(358.674 335.643) rotate(17.423)"/>
    <path id="Path_49" data-name="Path 49" class="cls-5" d="M734.863,625.607a3.4,3.4,0,0,1-1.2-.218l-6.865-2.574a3.437,3.437,0,0,1-2.142-3.945c1.728-7.771,7.619-34.229,10.844-48.42,3.826-16.833,59.63-19.961,62-20.086l.195-.01,6.277,7.888c2.268,7.291,1.55,12.978-2.137,16.9-10.757,11.453-42.873,4.346-46.7,3.447L738.07,623.4A3.436,3.436,0,0,1,734.863,625.607Z" transform="translate(-347.875 -293.598)"/>
    <path id="Path_50" data-name="Path 50" class="cls-5" d="M747.863,632.607a3.4,3.4,0,0,1-1.2-.218l-6.865-2.574a3.437,3.437,0,0,1-2.142-3.946c1.728-7.771,7.619-34.229,10.844-48.42,3.825-16.833,59.63-19.961,62-20.086l.195-.01,6.278,7.889c2.268,7.291,1.549,12.978-2.137,16.9-10.757,11.452-42.873,4.346-46.7,3.447L751.07,630.4A3.436,3.436,0,0,1,747.863,632.607Z" transform="translate(-350.98 -295.27)"/>
    <path id="Path_51" data-name="Path 51" class="cls-10" d="M720.49,511.21a8.012,8.012,0,0,1,.674,1.067l37.54,3.955,5.4-7.409,12.247,6.694L765.741,533.5,719.7,521.757a7.989,7.989,0,1,1,.789-10.547Z" transform="translate(-343.47 -283.493)"/>
    <path id="Path_52" data-name="Path 52" class="cls-6" d="M826.967,548.372a3.424,3.424,0,0,1-1.56-.381c-7.507-3.817-22.124-10.427-35.679-11.81a3.343,3.343,0,0,1-2.356-1.332,3.439,3.439,0,0,1-.635-2.672c1.223-6.771,4.029-24.012,3.667-37.83a18.721,18.721,0,0,1,14.144-18.624h0a60.794,60.794,0,0,1,7.545-1.487,18.873,18.873,0,0,1,20.977,21.892c-2.417,14.32-4.854,34.32-2.736,48.281a3.431,3.431,0,0,1-1.384,3.31A3.372,3.372,0,0,1,826.967,548.372Z" transform="translate(-362.709 -275.381)"/>
    <path id="Path_53" data-name="Path 53" class="cls-6" d="M788.343,513.865a3.425,3.425,0,0,1-1.36-.284l-9.779-4.233a3.429,3.429,0,0,1-1.783-4.5l7.559-17.463a8.753,8.753,0,1,1,16.066,6.954L791.487,511.8A3.433,3.433,0,0,1,788.343,513.865Z" transform="translate(-359.951 -277.296)"/>
    <ellipse id="Ellipse_10" data-name="Ellipse 10" class="cls-10" cx="18.695" cy="18.694" rx="18.695" ry="18.694" transform="translate(432.082 155.525)"/>
    <path id="Path_54" data-name="Path 54" class="cls-5" d="M796.893,425.8a67.432,67.432,0,0,0,29.172,9.612l-3.075-3.685a22.6,22.6,0,0,0,6.98,1.386A7.644,7.644,0,0,0,836.2,430.2a7.111,7.111,0,0,0,.476-6.569,13.466,13.466,0,0,0-4.237-5.3,25.224,25.224,0,0,0-23.477-4.2,15.075,15.075,0,0,0-7.012,4.5c-1.772,2.186-5.184,4.134-4.277,6.8Z" transform="translate(-365.147 -260.764)"/>
    <path id="Path_55" data-name="Path 55" class="cls-5" d="M804.729,405.043a57.454,57.454,0,0,0-20.9-13.517c-5.053-1.872-10.553-3.029-15.836-1.966s-10.279,4.718-11.752,9.9c-1.205,4.238.039,8.8,1.91,12.791s4.367,7.689,5.88,11.828a27,27,0,0,1-27.164,36.2c5.191.7,9.975,3.135,15.048,4.434s11.062,1.21,14.832-2.424c3.989-3.846,4.069-10.1,3.876-15.636l-.86-24.7c-.146-4.2-.271-8.531,1.243-12.449s5.112-7.349,9.312-7.314c3.184.027,6,1.956,8.554,3.857s5.255,3.931,8.426,4.214,6.791-2.064,6.554-5.239" transform="translate(-350.809 -255.095)"/>
    <path id="Path_56" data-name="Path 56" class="cls-1" d="M482.2,281.087l43.045,1.016,6.236,46.016-39.752.892Z" transform="translate(-115.174 -67.139)"/>
    <path id="Path_57" data-name="Path 57" class="cls-10" d="M767.49,509.21a8,8,0,0,1,.674,1.067l37.54,3.955,5.4-7.409,12.247,6.694L812.741,531.5,766.7,519.757a7.989,7.989,0,1,1,.789-10.547Z" transform="translate(-354.696 -283.015)"/>
    <path id="Path_58" data-name="Path 58" class="cls-6" d="M835.343,514.865a3.422,3.422,0,0,1-1.36-.284l-9.779-4.233a3.429,3.429,0,0,1-1.783-4.5l7.559-17.463a8.753,8.753,0,1,1,16.066,6.954L838.487,512.8a3.433,3.433,0,0,1-3.144,2.067Z" transform="translate(-371.178 -277.535)"/>
    <path id="Path_59" data-name="Path 59" class="cls-7" d="M626.616,524.508H323.679a4.947,4.947,0,1,0,0,9.895h8.753V642.1a4.947,4.947,0,0,0,9.895,0v-98.2L397.793,644.44a4.947,4.947,0,0,0,8.569-4.948L348.382,534.4H613.3v.064L555.35,639.493a4.947,4.947,0,1,0,8.569,4.947L613.3,554.946V642.1a4.948,4.948,0,0,0,9.9,0V537.011l1.439-2.609h1.986a4.947,4.947,0,1,0,0-9.895Z" transform="translate(-250.937 -287.425)"/>
    <path id="Path_60" data-name="Path 60" class="cls-7" d="M792.518,686.405H230.569a.906.906,0,0,1,0-1.813h561.95a.906.906,0,1,1,0,1.813Z" transform="translate(-229.662 -325.662)"/>
  </g>
</svg>
