<svg xmlns="http://www.w3.org/2000/svg" viewBox="0 0 764.055 517.07">
  <defs>
    <style>
      .cls-1 {
        fill: #f2f2f2;
      }

      .cls-2 {
        fill: #2f2e41;
      }

      .cls-3 {
        fill: #136eff;
      }

      .cls-4 {
        opacity: 0.3;
      }

      .cls-5 {
        opacity: 0.1;
      }

      .cls-6 {
        fill: #3f3d56;
      }

      .cls-7 {
        fill: #ffb9b9;
      }

      .cls-8 {
        fill: #d0cde1;
      }

      .cls-9 {
        fill: #d5d3e2;
      }
    </style>
  </defs>
  <g id="Group_27" data-name="Group 27" transform="translate(-968 -281)">
    <g id="undraw_solution_mindset_34bi" transform="translate(968 281.031)">
      <ellipse id="Ellipse_44" data-name="Ellipse 44" class="cls-1" cx="106.573" cy="106.573" rx="106.573" ry="106.573" transform="translate(0 296.505)"/>
      <path id="Path_221" data-name="Path 221" class="cls-2" d="M340.615,563.346a225.178,225.178,0,1,1,159.224-65.953A225.178,225.178,0,0,1,340.615,563.346Zm0-448.636c-123.215,0-223.458,100.243-223.458,223.459S217.4,561.628,340.615,561.628s223.458-100.244,223.458-223.46S463.829,114.709,340.615,114.709Z" transform="translate(-105.124 -112.998)"/>
      <path id="Path_222" data-name="Path 222" class="cls-3" d="M388.68,324.407l-.025.013-110.983,61.8L156.143,325.454l-2.094-1.047,6.307-126.146L270.1,120.05l1.211.757L384.9,191.953Z" transform="translate(-35.874 -27.964)"/>
      <path id="Path_223" data-name="Path 223" class="cls-4" d="M389.291,363.863l-110.983,61.8L156.779,364.9l107.653-75.473Z" transform="translate(-36.51 -67.407)"/>
      <path id="Path_224" data-name="Path 224" class="cls-5" d="M422,324.637,297.112,250.211l7.519-129.174,113.582,71.146Z" transform="translate(-69.191 -28.194)"/>
      <path id="Path_225" data-name="Path 225" class="cls-1" d="M159.978,248.7l-.617-.873L270.333,169.5,387.559,243l-.568.906-116.624-73.12Z" transform="translate(-37.112 -39.479)"/>
      <path id="Path_226" data-name="Path 226" class="cls-1" d="M157.179,305.586l-.6-.884,110.409-74.96.289.164,119.733,67.86-.528.93L267.039,231Z" transform="translate(-36.464 -53.509)"/>
      <path id="Path_227" data-name="Path 227" class="cls-1" d="M212.105,354.633l-.563-.908,111.273-68.95V152.594h1.069V285.37Z" transform="translate(-49.263 -35.542)"/>
      <path id="Path_228" data-name="Path 228" class="cls-1" d="M269.037,383.986l-.568-.905,107.143-67.2v-131h1.069v131.59Z" transform="translate(-62.52 -43.061)"/>
      <path id="Path_229" data-name="Path 229" class="cls-1" d="M369.784,355.5,245.176,286.27l.018-.333,6.56-129.656,1.067.054-6.543,129.323L370.3,354.57Z" transform="translate(-57.096 -36.401)"/>
      <path id="Path_230" data-name="Path 230" class="cls-1" d="M319.1,385.372,195.9,320.805l.019-.343,7.263-129.72,1.067.06L197,320.178l122.6,64.247Z" transform="translate(-45.619 -44.426)"/>
      <ellipse id="Ellipse_45" data-name="Ellipse 45" class="cls-6" cx="42.973" cy="42.973" rx="42.973" ry="42.973" transform="translate(330.89 6.009)"/>
      <rect id="Rectangle_87" data-name="Rectangle 87" class="cls-2" width="739.131" height="1.719" transform="translate(24.924 507.932)"/>
      <path id="Path_231" data-name="Path 231" class="cls-7" d="M986.137,472.775l9.823,26.906s-10.25,30.749,0,31.6,11.529-29.468,11.529-29.468l-5.552-32.458Z" transform="translate(-307.895 -195.992)"/>
      <path id="Path_232" data-name="Path 232" class="cls-8" d="M989.668,359.128l7.26,7.26v34.593s4.271,6.406,3.417,8.114-1.708,1.708-.854,2.99,1.708,2.135.854,2.989a3.2,3.2,0,0,0,0,3.844c.854.854,2.563,2.135,1.281,3.417s-2.99.427-1.281,5.125,4.7,5.979,3.844,7.687-.854,5.979-.854,5.979l-18.364,2.562-3.844-48.259Z" transform="translate(-306.728 -170.322)"/>
      <path id="Path_233" data-name="Path 233" class="cls-6" d="M902.707,352.464l-21.354.854.854,8.968L901,358.869Z" transform="translate(-205.247 -82.087)"/>
      <path id="Path_234" data-name="Path 234" class="cls-7" d="M831.863,187.953,829.3,213.578l26.052,3.843,1.922-14.734,1.922-14.734Z" transform="translate(-193.125 -43.777)"/>
      <path id="Path_235" data-name="Path 235" class="cls-5" d="M831.863,187.953,829.3,213.578l26.052,3.843,1.922-14.734,1.922-14.734Z" transform="translate(-193.125 -43.777)"/>
      <path id="Path_236" data-name="Path 236" class="cls-7" d="M860.875,459.894,875.4,491.07s2.562,14.52,6.406,14.948,7.687-14.948,7.687-14.948l-5.124-8.114-5.979-23.062Z" transform="translate(-278.725 -193.788)"/>
      <path id="Path_237" data-name="Path 237" class="cls-2" d="M893.738,493.4,881.78,512.188s-11.531,178.943-9.822,177.662,7.26-1.708,9.4-5.125,15.375,0,15.375,0l7.687-8.114V670.2c0-1.281,15.375-99.081,15.375-99.081v24.77s-4.7,90.966,2.99,90.113,23.489-5.979,23.489-5.979,22.635-169.975,15.8-176.381-9.823-20.927-9.823-20.927Z" transform="translate(-281.265 -199.104)"/>
      <ellipse id="Ellipse_46" data-name="Ellipse 46" class="cls-7" cx="20.499" cy="20.5" rx="20.499" ry="20.5" transform="translate(632.545 111.506)"/>
      <path id="Path_238" data-name="Path 238" class="cls-8" d="M883.844,339.124l-2.989-1.708s-13.239,8.969-17.51,29.041-7.26,25.2-7.26,25.2-4.271.854-1.281,3.844,2.989,2.562.427,4.271-4.271-1.708-2.562,1.708,3.844,2.562,2.135,4.7-4.7,2.135-2.989,3.844-1.708,5.552.427,7.26,2.989,2.135,2.989,5.125a15.123,15.123,0,0,0,.854,5.125h22.208s-4.271-8.114-2.989-9.823,1.708-3.417.854-4.271-3.417.854-.854-1.281,3.417-.854,2.562-3.417-2.562-1.281-.854-2.562,2.989-.854,2.135-2.135-2.562-1.281-.854-2.135,2.989,0,2.562-2.135-.854-1.281,0-2.135,9.823-29.9,9.823-30.749S883.844,339.124,883.844,339.124Z" transform="translate(-276.496 -165.266)"/>
      <path id="Path_239" data-name="Path 239" class="cls-6" d="M777.987,339.659l-26.906,1.708,6.834,6.406,18.791.427Z" transform="translate(-174.91 -79.105)"/>
      <path id="Path_240" data-name="Path 240" class="cls-6" d="M896.49,494.411l-5.552,10.25s16.656,2.135,22.635,4.271,21.354,5.125,21.354,5.125l3.844-14.948Z" transform="translate(-285.726 -201.826)"/>
      <path id="Path_241" data-name="Path 241" class="cls-6" d="M859.641,386.629l4.7,14.094,18.792-3.844-2.136-13.239Z" transform="translate(-200.191 -89.347)"/>
      <path id="Path_242" data-name="Path 242" class="cls-9" d="M952.6,317.57s-1.281-.854-4.271.854-12.812,2.562-17.51-2.562-8.114-9.4-9.4-8.542S919.293,318,919.293,318l-4.271,3.417-25.2,8.969,2.135,57.655,3.844,13.239s-2.989,10.25.854,16.229-2.135,8.114-2.135,8.114-1.281,1.708-.427,5.979-.854,20.072-.854,20.072,36.3,16.229,74.31,2.135l-4.271-16.229-2.135-36.3s2.135-5.979,1.708-8.541S975.666,354.3,975.666,354.3s-2.135-17.937-13.239-21.781-12.812-7.687-12.812-7.687S954.74,319.279,952.6,317.57Z" transform="translate(-285.466 -158.232)"/>
      <path id="Path_243" data-name="Path 243" class="cls-2" d="M925.928,279.219a9.4,9.4,0,0,1-1.31-6.632,20.1,20.1,0,0,0,.573-5.977,59.159,59.159,0,0,1,3.439-8.679c1.719-3.111.9-4.421,6.3-5.4s3.193-8.024,17.439-.409a4.178,4.178,0,0,0,4.339,1.638c2.948-.573,4.012,3.521,4.012,3.521s1.965-1.146,2.7.491,5.991-.983,5.991,10.07-5.979,20.927-5.979,20.927.438-18.593-9.3-20.476-20.223-7.369-22.761-.327A53.681,53.681,0,0,1,925.928,279.219Z" transform="translate(-293.525 -144.588)"/>
      <ellipse id="Ellipse_47" data-name="Ellipse 47" class="cls-7" cx="1.922" cy="2.562" rx="1.922" ry="2.562" transform="translate(668.205 133.927)"/>
      <path id="Path_244" data-name="Path 244" class="cls-2" d="M955.816,737.951l3,9.011s0,9.011,3,13.516,6.007,14.267-6.007,15.018-17.27-3.754-17.27-3.754,2.253-6.007,0-8.26,0-6.758,0-6.758L940.8,738.7Z" transform="translate(-296.579 -258.541)"/>
      <path id="Path_245" data-name="Path 245" class="cls-2" d="M882.454,737.951l-3,9.011s0,9.011-3,13.516-6.007,14.267,6.007,15.018,17.27-3.754,17.27-3.754-2.253-6.007,0-8.26,0-6.758,0-6.758L897.472,738.7Z" transform="translate(-281.725 -258.541)"/>
    </g>
    <g id="undraw_fitting_pieces_cli3" transform="translate(1338 455)">
      <ellipse id="Ellipse_48" data-name="Ellipse 48" class="cls-1" cx="58.458" cy="58.457" rx="58.458" ry="58.457" transform="translate(0 144.955)"/>
      <path id="Path_249" data-name="Path 249" class="cls-3" d="M58.458,0A58.457,58.457,0,1,1,0,58.457,58.457,58.457,0,0,1,58.458,0Z" transform="translate(9.505 136.4)"/>
      <rect id="Rectangle_88" data-name="Rectangle 88" class="cls-1" width="51.329" height="51.328" transform="translate(27.565 34.219)"/>
      <rect id="Rectangle_89" data-name="Rectangle 89" class="cls-3" width="51.329" height="51.328" transform="translate(34.694 26.615)"/>
      <rect id="Rectangle_90" data-name="Rectangle 90" class="cls-6" width="75.288" height="0.891" transform="translate(81.678 315.895)"/>
      <path id="Path_246" data-name="Path 246" class="cls-6" d="M341.353,180.384H273.865V112.9h67.488Zm-66.537-.951H340.4V113.848H274.816Z" transform="translate(-230.141 -112.897)"/>
      <rect id="Rectangle_91" data-name="Rectangle 91" class="cls-1" width="13.307" height="13.307" transform="translate(143.055 130.697)"/>
      <rect id="Rectangle_92" data-name="Rectangle 92" class="cls-3" width="13.307" height="13.307" transform="translate(145.907 127.37)"/>
      <path id="Path_247" data-name="Path 247" class="cls-6" d="M519.727,374.759H497.865V352.9h21.862Zm-20.912-.951h19.961V353.848H498.816Z" transform="translate(-347.681 -238.834)"/>
      <path id="Path_248" data-name="Path 248" class="cls-6" d="M352.581,619.327A72.715,72.715,0,1,1,425.3,546.612,72.8,72.8,0,0,1,352.581,619.327Zm0-144.48a71.765,71.765,0,1,0,71.765,71.765A71.846,71.846,0,0,0,352.581,474.847Z" transform="translate(-233.289 -302.327)"/>
    </g>
  </g>
</svg>
