<svg xmlns="http://www.w3.org/2000/svg" viewBox="0 0 223.46 79.48"><defs><style>.cls-1{fill:#222;}.cls-1,.cls-2{fill-rule:evenodd;}.cls-2{fill:#263d89;}.cls-3{fill:#231f20;}.cls-4{fill:#fff;stroke:#231f20;stroke-miterlimit:10;stroke-width:2px;}</style></defs><g id="Layer_2" data-name="Layer 2"><g id="Layer_1-2" data-name="Layer 1"><path class="cls-1" d="M30.42,21.22a2.11,2.11,0,0,0-2.3-1.87,2.11,2.11,0,0,0-2.3,1.87,2.11,2.11,0,0,0,2.3,1.88A2.12,2.12,0,0,0,30.42,21.22Zm-4.59,2.71c-2.55,0-4.59,1.67-4.59,3.74h4.59v8.42c0,2.07,2.06,3.75,4.59,3.75V23.93Zm5.74,0h4.6c2.54,0,4.59,1.67,4.59,3.74h-9.2V23.93Zm4.61,4.59h-4.6V44.41c2.55,0,4.6-1.67,4.6-3.74Z"/><path class="cls-2" d="M48.49,36.42A17,17,0,0,1,32.23,48.05a16.83,16.83,0,0,1-17-16.61,16.83,16.83,0,0,1,17-16.61A17,17,0,0,1,48.49,26.46a24.58,24.58,0,0,0,8.7-14.92A32.54,32.54,0,0,0,32.23,0C14.56,0,.21,13.84,0,31V67.49a32.36,32.36,0,0,0,15.17,12V58.11a32.83,32.83,0,0,0,42-6.78A24.65,24.65,0,0,0,48.49,36.42Z"/><path class="cls-3" d="M65.2,23.73h5c3.49,0,6.09,1.26,6.09,5s-2.6,5.3-6,5.3H68v6H65.2Zm4.83,8c2.35,0,3.47-1,3.47-3s-1.22-2.71-3.56-2.71H68v5.69Z"/><path class="cls-3" d="M79,27.79h2.27L81.47,30h.08a4.06,4.06,0,0,1,3.36-2.49,2.88,2.88,0,0,1,1.34.25l-.48,2.5a3.83,3.83,0,0,0-1.21-.2c-1,0-2.08.67-2.8,2.54v7.49H79Z"/><path class="cls-3" d="M87.66,24a1.72,1.72,0,1,1,1.71,1.63A1.61,1.61,0,0,1,87.66,24ZM88,27.79h2.77V40.07H88Z"/><path class="cls-3" d="M94.29,27.79h2.27l.22,1.68h.07a5,5,0,0,1,3.64-2,3.18,3.18,0,0,1,3.26,2.2c1.14-1.25,2.31-2.2,3.81-2.2,2.5,0,3.65,1.78,3.65,4.88v7.7h-2.77V32.74c0-2-.58-2.78-1.82-2.78a3.62,3.62,0,0,0-2.48,1.53v8.58h-2.78V32.74c0-2-.57-2.78-1.82-2.78a3.64,3.64,0,0,0-2.47,1.53v8.58H94.29Z"/><path class="cls-3" d="M114,36.77c0-2.63,2.1-4,7-4.54,0-1.32-.55-2.42-2.15-2.42A6.39,6.39,0,0,0,115.45,31l-1-1.92a9,9,0,0,1,4.86-1.61c3,0,4.41,1.89,4.41,5.31v7.27h-2.27l-.21-1.36h-.08a5.61,5.61,0,0,1-3.67,1.66A3.38,3.38,0,0,1,114,36.77Zm7,0V34c-3.21.42-4.28,1.29-4.28,2.53s.71,1.56,1.7,1.56A3.69,3.69,0,0,0,120.93,36.78Z"/><path class="cls-3" d="M127,27.79h2.28l.21,2.19h.07A4.06,4.06,0,0,1,133,27.49a2.94,2.94,0,0,1,1.34.25l-.48,2.5a4,4,0,0,0-1.22-.2c-.94,0-2.08.67-2.79,2.54v7.49H127Z"/><path class="cls-3" d="M135.65,44.86l.51-2.23a3.2,3.2,0,0,0,.85.17c1.25,0,2-.88,2.36-2.11l.23-.77-4.66-12.13h2.82l2,6c.35,1.09.69,2.3,1,3.47h.1c.29-1.14.59-2.35.9-3.47l1.76-6h2.68L142,40.63c-1,2.77-2.23,4.48-4.81,4.48A4.53,4.53,0,0,1,135.65,44.86Z"/><path class="cls-3" d="M153.41,23.73h2.79V40.07h-2.79Z"/><path class="cls-3" d="M163.38,26.17h-4.55V23.73h11.9v2.44h-4.55v13.9h-2.8Z"/><path class="cls-3" d="M177.35,32c0-5.35,3.23-8.52,7.22-8.52a6.19,6.19,0,0,1,4.54,2.07l-1.5,1.86a4,4,0,0,0-3-1.42c-2.57,0-4.41,2.25-4.41,5.92s1.7,6,4.34,6a4.35,4.35,0,0,0,3.36-1.68l1.5,1.82a6.2,6.2,0,0,1-5,2.38C180.49,40.37,177.35,37.36,177.35,32Z"/><path class="cls-3" d="M191.18,36.77c0-2.63,2.1-4,7-4.54,0-1.32-.55-2.42-2.15-2.42A6.38,6.38,0,0,0,192.67,31l-1-1.92a9,9,0,0,1,4.85-1.61c3,0,4.42,1.89,4.42,5.31v7.27h-2.28l-.21-1.36h-.08a5.61,5.61,0,0,1-3.67,1.66A3.38,3.38,0,0,1,191.18,36.77Zm7,0V34c-3.21.42-4.28,1.29-4.28,2.53s.72,1.56,1.71,1.56A3.67,3.67,0,0,0,198.14,36.78Z"/><path class="cls-3" d="M204.25,27.79h2.28l.21,2.19h.08a4,4,0,0,1,3.36-2.49,2.94,2.94,0,0,1,1.34.25l-.48,2.5a3.9,3.9,0,0,0-1.22-.2c-.94,0-2.08.67-2.79,2.54v7.49h-2.78Z"/><path class="cls-3" d="M212.22,33.94c0-4,2.67-6.45,5.46-6.45,3.2,0,4.88,2.4,4.88,5.83a7.12,7.12,0,0,1-.12,1.4h-7.51c.23,2.18,1.58,3.42,3.49,3.42a4.94,4.94,0,0,0,2.75-.89l.94,1.79a7.16,7.16,0,0,1-4.06,1.33C214.79,40.37,212.22,38,212.22,33.94Zm7.94-1.18c0-1.89-.81-3-2.43-3-1.37,0-2.59,1.07-2.83,3Z"/><line class="cls-4" x1="68.27" y1="47.8" x2="223.46" y2="47.8"/></g></g></svg>