<svg xmlns="http://www.w3.org/2000/svg" viewBox="0 0 250.75 79.48"><defs><style>.cls-1{fill:#222;}.cls-1,.cls-2{fill-rule:evenodd;}.cls-2{fill:#263d89;}.cls-3{fill:#231f20;}.cls-4{fill:#fff;stroke:#231f20;stroke-miterlimit:10;stroke-width:2px;}</style></defs><g id="Layer_2" data-name="Layer 2"><g id="Layer_1-2" data-name="Layer 1"><path class="cls-1" d="M30.42,21.22a2.11,2.11,0,0,0-2.3-1.87,2.11,2.11,0,0,0-2.3,1.87,2.11,2.11,0,0,0,2.3,1.88A2.12,2.12,0,0,0,30.42,21.22Zm-4.59,2.71c-2.55,0-4.59,1.67-4.59,3.74h4.59v8.42c0,2.07,2.06,3.75,4.59,3.75V23.93Zm5.74,0h4.6c2.54,0,4.59,1.67,4.59,3.74h-9.2V23.93Zm4.61,4.59h-4.6V44.41c2.55,0,4.6-1.67,4.6-3.74Z"/><path class="cls-2" d="M48.49,36.42A17,17,0,0,1,32.23,48.05a16.83,16.83,0,0,1-17-16.61,16.83,16.83,0,0,1,17-16.61A17,17,0,0,1,48.49,26.46a24.58,24.58,0,0,0,8.7-14.92A32.54,32.54,0,0,0,32.23,0C14.56,0,.21,13.84,0,31V67.49a32.36,32.36,0,0,0,15.17,12V58.11a32.83,32.83,0,0,0,42-6.78A24.65,24.65,0,0,0,48.49,36.42Z"/><path class="cls-3" d="M80.79,24h5.37c3.78,0,6.58,1.36,6.58,5.44s-2.81,5.73-6.48,5.73H83.81v6.48h-3ZM86,32.64c2.54,0,3.75-1.05,3.75-3.22s-1.32-2.93-3.85-2.93h-2.1v6.15Z"/><path class="cls-3" d="M95.68,28.38h2.46l.23,2.36h.08c.91-1.73,2.27-2.69,3.64-2.69a3.16,3.16,0,0,1,1.44.27L103,31a4.18,4.18,0,0,0-1.31-.21c-1,0-2.25.72-3,2.74v8.08h-3Z"/><path class="cls-3" d="M105.05,24.29a1.85,1.85,0,1,1,1.85,1.76A1.74,1.74,0,0,1,105.05,24.29Zm.34,4.09h3V41.63h-3Z"/><path class="cls-3" d="M112.21,28.38h2.46l.23,1.8H115a5.44,5.44,0,0,1,3.92-2.13,3.44,3.44,0,0,1,3.53,2.38c1.23-1.35,2.49-2.38,4.12-2.38,2.69,0,3.94,1.92,3.94,5.27v8.31h-3V33.72c0-2.18-.62-3-2-3a3.91,3.91,0,0,0-2.68,1.65v9.26h-3V33.72c0-2.18-.62-3-2-3a4,4,0,0,0-2.67,1.65v9.26h-3Z"/><path class="cls-3" d="M133.46,38.07c0-2.84,2.27-4.32,7.52-4.9,0-1.43-.59-2.61-2.32-2.61a6.89,6.89,0,0,0-3.59,1.3L134,29.79a9.73,9.73,0,0,1,5.25-1.74c3.2,0,4.77,2,4.77,5.73v7.85h-2.46l-.23-1.46h-.08a6.11,6.11,0,0,1-4,1.79A3.65,3.65,0,0,1,133.46,38.07Zm7.52,0v-3c-3.47.46-4.62,1.39-4.62,2.73,0,1.18.77,1.69,1.84,1.69A4,4,0,0,0,141,38.08Z"/><path class="cls-3" d="M147.58,28.38H150l.23,2.36h.08c.91-1.73,2.26-2.69,3.63-2.69a3.23,3.23,0,0,1,1.45.27l-.52,2.7a4.18,4.18,0,0,0-1.31-.21c-1,0-2.25.72-3,2.74v8.08h-3Z"/><path class="cls-3" d="M156.88,46.81l.55-2.41a3.75,3.75,0,0,0,.92.18c1.34,0,2.12-.95,2.55-2.28l.24-.83-5-13.09h3l2.21,6.5c.38,1.17.75,2.48,1.12,3.74h.11c.32-1.23.64-2.54,1-3.74l1.91-6.5h2.9l-4.63,13.86c-1.06,3-2.4,4.84-5.19,4.84A4.9,4.9,0,0,1,156.88,46.81Z"/><path class="cls-3" d="M176.05,24h3V41.63h-3Z"/><path class="cls-3" d="M186.83,26.62h-4.92V24h12.85v2.64h-4.91v15h-3Z"/><path class="cls-3" d="M201.91,32.87c0-5.78,3.49-9.21,7.8-9.21a6.7,6.7,0,0,1,4.91,2.23l-1.62,2a4.35,4.35,0,0,0-3.23-1.53c-2.77,0-4.75,2.43-4.75,6.39s1.83,6.47,4.68,6.47a4.75,4.75,0,0,0,3.64-1.82l1.61,2A6.71,6.71,0,0,1,209.59,42C205.31,42,201.91,38.71,201.91,32.87Z"/><path class="cls-3" d="M216.85,38.07c0-2.84,2.27-4.32,7.52-4.9,0-1.43-.59-2.61-2.32-2.61a6.89,6.89,0,0,0-3.59,1.3l-1.11-2.07a9.73,9.73,0,0,1,5.25-1.74c3.2,0,4.77,2,4.77,5.73v7.85h-2.46l-.23-1.46h-.08a6.11,6.11,0,0,1-4,1.79A3.65,3.65,0,0,1,216.85,38.07Zm7.52,0v-3c-3.47.46-4.62,1.39-4.62,2.73,0,1.18.77,1.69,1.84,1.69A4,4,0,0,0,224.37,38.08Z"/><path class="cls-3" d="M231,28.38h2.46l.23,2.36h.08c.91-1.73,2.26-2.69,3.63-2.69a3.2,3.2,0,0,1,1.45.27L238.3,31a4.18,4.18,0,0,0-1.31-.21c-1,0-2.25.72-3,2.74v8.08h-3Z"/><path class="cls-3" d="M239.57,35c0-4.31,2.89-7,5.9-7,3.45,0,5.28,2.59,5.28,6.3a9.2,9.2,0,0,1-.13,1.51H242.5c.25,2.35,1.71,3.69,3.77,3.69a5.38,5.38,0,0,0,3-1l1,1.93A7.7,7.7,0,0,1,245.87,42C242.34,42,239.57,39.39,239.57,35Zm8.58-1.28c0-2-.87-3.28-2.62-3.28-1.49,0-2.8,1.15-3.06,3.28Z"/><line class="cls-4" x1="89.1" y1="50.32" x2="244.29" y2="50.32"/></g></g></svg>