<svg xmlns="http://www.w3.org/2000/svg" viewBox="0 0 193.25 70.51"><defs><style>.cls-1{fill:#222;}.cls-1,.cls-2{fill-rule:evenodd;}.cls-2{fill:#263d89;}.cls-3{fill:#231f20;}.cls-4{fill:#fff;stroke:#231f20;stroke-miterlimit:10;stroke-width:2px;}</style></defs><g id="Layer_2" data-name="Layer 2"><g id="Layer_1-2" data-name="Layer 1"><path class="cls-1" d="M26.57,19.53a1.73,1.73,0,1,0-1.73,1.57A1.66,1.66,0,0,0,26.57,19.53ZM23.13,21.8a3.3,3.3,0,0,0-3.44,3.14h3.44V32a3.3,3.3,0,0,0,3.44,3.14V21.8Zm4.3,0h3.44a3.31,3.31,0,0,1,3.45,3.14h-6.9V21.8Zm3.45,3.85H27.44V39a3.29,3.29,0,0,0,3.44-3.14Z"/><path class="cls-2" d="M40.83,32.31A14.4,14.4,0,0,1,27.14,42.63,14.54,14.54,0,0,1,12.79,27.89,14.55,14.55,0,0,1,27.14,13.15,14.41,14.41,0,0,1,40.83,23.47a21.86,21.86,0,0,0,7.32-13.23A26.81,26.81,0,0,0,27.14,0C12.26,0,.18,12.28,0,27.52V59.88A27.51,27.51,0,0,0,12.77,70.51v-19a26.48,26.48,0,0,0,14.38,4.23,26.86,26.86,0,0,0,21-10.25A22,22,0,0,0,40.83,32.31Z"/><path class="cls-3" d="M54.77,20.16h4.37c3.08,0,5.36,1.11,5.36,4.43s-2.29,4.67-5.28,4.67h-2v5.29H54.77ZM59,27.22c2.07,0,3-.86,3-2.63S61,22.2,58.93,22.2h-1.7v5Z"/><path class="cls-3" d="M66.9,23.74h2l.19,1.93h.06a3.58,3.58,0,0,1,3-2.2,2.5,2.5,0,0,1,1.17.23l-.42,2.2a3.29,3.29,0,0,0-1.07-.18c-.83,0-1.83.59-2.46,2.24v6.59H66.9Z"/><path class="cls-3" d="M74.53,20.41a1.51,1.51,0,0,1,3,0,1.51,1.51,0,0,1-3,0Zm.28,3.33h2.44V34.55H74.81Z"/><path class="cls-3" d="M80.36,23.74h2l.18,1.47h.07a4.45,4.45,0,0,1,3.2-1.74,2.8,2.8,0,0,1,2.87,1.94,4.69,4.69,0,0,1,3.36-1.94c2.19,0,3.21,1.57,3.21,4.3v6.78H92.82V28.1c0-1.78-.51-2.45-1.61-2.45A3.19,3.19,0,0,0,89,27v7.55H86.59V28.1c0-1.78-.51-2.45-1.6-2.45A3.19,3.19,0,0,0,82.81,27v7.55H80.36Z"/><path class="cls-3" d="M97.68,31.64c0-2.31,1.85-3.52,6.13-4,0-1.16-.49-2.13-1.89-2.13A5.6,5.6,0,0,0,99,26.58l-.9-1.69a7.89,7.89,0,0,1,4.27-1.42c2.61,0,3.89,1.67,3.89,4.68v6.4h-2l-.19-1.2H104a4.92,4.92,0,0,1-3.23,1.46A3,3,0,0,1,97.68,31.64Zm6.13,0V29.22c-2.83.37-3.77,1.14-3.77,2.23s.63,1.37,1.5,1.37A3.26,3.26,0,0,0,103.81,31.65Z"/><path class="cls-3" d="M109.19,23.74h2l.18,1.93h.07a3.57,3.57,0,0,1,3-2.2,2.55,2.55,0,0,1,1.18.23l-.42,2.2a3.33,3.33,0,0,0-1.07-.18c-.83,0-1.83.59-2.46,2.24v6.59h-2.44Z"/><path class="cls-3" d="M116.76,38.76l.45-2A2.85,2.85,0,0,0,118,37c1.09,0,1.73-.77,2.08-1.86l.19-.67-4.09-10.68h2.47l1.8,5.3c.32,1,.61,2,.92,3.05h.08c.27-1,.53-2.07.8-3.05l1.55-5.3h2.36L122.36,35c-.87,2.43-2,3.94-4.24,3.94A4,4,0,0,1,116.76,38.76Z"/><path class="cls-3" d="M132.39,20.16h2.46V34.55h-2.46Z"/><path class="cls-3" d="M141.17,22.3h-4V20.16h10.47V22.3h-4V34.55h-2.46Z"/><path class="cls-3" d="M153.46,27.4c0-4.71,2.84-7.51,6.35-7.51a5.45,5.45,0,0,1,4,1.83l-1.32,1.64a3.56,3.56,0,0,0-2.63-1.25c-2.25,0-3.88,2-3.88,5.21s1.5,5.27,3.82,5.27a3.85,3.85,0,0,0,3-1.48l1.32,1.61a5.47,5.47,0,0,1-4.37,2.09C156.22,34.81,153.46,32.16,153.46,27.4Z"/><path class="cls-3" d="M165.63,31.64c0-2.31,1.85-3.52,6.12-4,0-1.16-.48-2.13-1.89-2.13a5.6,5.6,0,0,0-2.92,1.06l-.9-1.69a7.89,7.89,0,0,1,4.27-1.42c2.61,0,3.89,1.67,3.89,4.68v6.4h-2l-.19-1.2h-.07a4.92,4.92,0,0,1-3.23,1.46A3,3,0,0,1,165.63,31.64Zm6.12,0V29.22c-2.82.37-3.76,1.14-3.76,2.23s.62,1.37,1.5,1.37A3.22,3.22,0,0,0,171.75,31.65Z"/><path class="cls-3" d="M177.13,23.74h2l.19,1.93h.07a3.56,3.56,0,0,1,3-2.2,2.55,2.55,0,0,1,1.18.23l-.42,2.2a3.33,3.33,0,0,0-1.07-.18c-.84,0-1.84.59-2.46,2.24v6.59h-2.45Z"/><path class="cls-3" d="M184.14,29.15c0-3.51,2.35-5.68,4.8-5.68,2.82,0,4.31,2.12,4.31,5.14a6.39,6.39,0,0,1-.11,1.23h-6.61a3,3,0,0,0,3.07,3,4.31,4.31,0,0,0,2.42-.79l.83,1.58a6.27,6.27,0,0,1-3.57,1.17C186.4,34.81,184.14,32.72,184.14,29.15Zm7-1c0-1.66-.71-2.67-2.13-2.67-1.22,0-2.29.94-2.5,2.67Z"/><line class="cls-4" x1="62.15" y1="40.93" x2="183.72" y2="40.93"/></g></g></svg>