<svg xmlns="http://www.w3.org/2000/svg" viewBox="0 0 170.4 97.12"><defs><style>.cls-1{fill:#222;}.cls-1,.cls-2{fill-rule:evenodd;}.cls-2{fill:#263d89;}.cls-3{fill:#231f20;}.cls-4{fill:#fff;stroke:#231f20;stroke-miterlimit:10;}</style></defs><g id="Layer_2" data-name="Layer 2"><g id="Layer_1-2" data-name="Layer 1"><path class="cls-1" d="M39.77,27.88a2.22,2.22,0,1,0-2.21,2A2.1,2.1,0,0,0,39.77,27.88Zm-4.4,2.83A4.17,4.17,0,0,0,31,34.63h4.4v8.8a4.18,4.18,0,0,0,4.4,3.91V30.71Zm5.5,0h4.39a4.17,4.17,0,0,1,4.4,3.92h-8.8V30.71Zm4.41,4.8h-4.4V52.13a4.18,4.18,0,0,0,4.4-3.92Z"/><path class="cls-2" d="M60,44.5A21,21,0,0,1,39.86,58.72c-11.64,0-21.08-9.09-21.08-20.3s9.44-20.3,21.08-20.3A21,21,0,0,1,60,32.33,29.9,29.9,0,0,0,70.73,14.11,40.37,40.37,0,0,0,39.86,0C18,0,.26,16.91,0,37.9V82.47A39.88,39.88,0,0,0,18.76,97.12V71a41,41,0,0,0,52-8.29A30,30,0,0,0,60,44.5Z"/><path class="cls-3" d="M71.22,35.63l.9,0,1.13,0,1.25,0,.86,0a3.83,3.83,0,0,1,2.78.91,3.15,3.15,0,0,1,.93,2.35,4.32,4.32,0,0,1-.19,1.25,3.45,3.45,0,0,1-.64,1.21,3.19,3.19,0,0,1-1.22.9,4.84,4.84,0,0,1-2,.35H73.7v-.33h1.23a1.55,1.55,0,0,0,1.2-.45,2.46,2.46,0,0,0,.56-1.17,7.82,7.82,0,0,0,.15-1.57,5.63,5.63,0,0,0-.37-2.35A1.32,1.32,0,0,0,75.18,36c-.35,0-.57.09-.67.28a2.61,2.61,0,0,0-.16,1.14v8.11a3.22,3.22,0,0,0,.11,1,.6.6,0,0,0,.41.41,3.3,3.3,0,0,0,.92.12v.36l-1.08,0-1.38,0-1.12,0-1,0V47a2.09,2.09,0,0,0,.64-.13.57.57,0,0,0,.29-.4,4,4,0,0,0,.07-.89V37.38a3.94,3.94,0,0,0-.07-.9.58.58,0,0,0-.3-.4,1.63,1.63,0,0,0-.63-.12Z"/><path class="cls-3" d="M84.28,38.56a1,1,0,0,1,.7.22,1.27,1.27,0,0,1,.39.57,2,2,0,0,1,.13.73,1.65,1.65,0,0,1-.29,1,.89.89,0,0,1-.76.39,1,1,0,0,1-.73-.29,1.12,1.12,0,0,1-.26-.77,1.6,1.6,0,0,1,.17-.77,1.78,1.78,0,0,1,.42-.52.44.44,0,0,0-.37,0,1,1,0,0,0-.63.4,2.78,2.78,0,0,0-.43.8,2.73,2.73,0,0,0-.16.91v4.39A1.1,1.1,0,0,0,83.72,47v.35l-.9,0c-.39,0-.8,0-1.23,0s-.72,0-1.09,0l-.83,0V47a.79.79,0,0,0,.66-.24,1.63,1.63,0,0,0,.2-1V40.59a2.55,2.55,0,0,0-.18-1.1.69.69,0,0,0-.68-.35v-.35a8,8,0,0,0,.83.05,8.5,8.5,0,0,0,1-.06,7.39,7.39,0,0,0,.91-.17v1.53a3.49,3.49,0,0,1,.43-.81,2.19,2.19,0,0,1,.61-.57A1.49,1.49,0,0,1,84.28,38.56Z"/><path class="cls-3" d="M88.71,38.61V45.8a1.63,1.63,0,0,0,.2,1,.81.81,0,0,0,.66.24v.35l-.76,0c-.33,0-.67,0-1,0s-.7,0-1.06,0l-.8,0V47a.81.81,0,0,0,.66-.24,1.64,1.64,0,0,0,.19-1V40.59a2.55,2.55,0,0,0-.18-1.1.67.67,0,0,0-.67-.35v-.35a7.86,7.86,0,0,0,.83.05,8.74,8.74,0,0,0,1-.06A6.88,6.88,0,0,0,88.71,38.61Zm-1-4.09a1.18,1.18,0,0,1,.89.34,1.27,1.27,0,0,1,.33.93,1.3,1.3,0,0,1-.33.94,1.21,1.21,0,0,1-.89.34,1.2,1.2,0,0,1-.89-.34,1.3,1.3,0,0,1-.33-.94,1.27,1.27,0,0,1,.33-.93A1.16,1.16,0,0,1,87.67,34.52Z"/><path class="cls-3" d="M95,38.56a2,2,0,0,1,.91.17,1.52,1.52,0,0,1,.56.47,2,2,0,0,1,.31.82,6.86,6.86,0,0,1,.1,1.33V45.8a1.77,1.77,0,0,0,.17,1,.7.7,0,0,0,.6.24v.35l-.73,0c-.32,0-.64,0-1,0s-.64,0-1,0l-.71,0V47a.54.54,0,0,0,.51-.24,2.23,2.23,0,0,0,.14-1V40.66a3.73,3.73,0,0,0-.06-.72.89.89,0,0,0-.2-.48.6.6,0,0,0-.47-.18,1,1,0,0,0-.64.25,1.76,1.76,0,0,0-.47.69,2.55,2.55,0,0,0-.19,1v4.6a2,2,0,0,0,.15,1,.54.54,0,0,0,.5.24v.35l-.67,0c-.29,0-.6,0-.91,0s-.69,0-1,0l-.8,0V47a.81.81,0,0,0,.66-.24,1.64,1.64,0,0,0,.19-1V40.59a2.4,2.4,0,0,0-.18-1.1.67.67,0,0,0-.67-.35v-.35a7.86,7.86,0,0,0,.83.05,8.74,8.74,0,0,0,1-.06,6.88,6.88,0,0,0,.9-.17v1.48a2.41,2.41,0,0,1,.88-1.18A2.11,2.11,0,0,1,95,38.56Zm4,0a2,2,0,0,1,.92.17,1.6,1.6,0,0,1,.56.47,2.3,2.3,0,0,1,.31.82,7.91,7.91,0,0,1,.09,1.33V45.8a1.64,1.64,0,0,0,.19,1,.81.81,0,0,0,.67.24v.35l-.77,0c-.34,0-.67,0-1,0s-.64,0-1,0l-.71,0V47a.53.53,0,0,0,.5-.24,2.23,2.23,0,0,0,.14-1V40.66a3.73,3.73,0,0,0-.06-.72.9.9,0,0,0-.23-.48.66.66,0,0,0-.51-.18,1.08,1.08,0,0,0-.91.58,2.46,2.46,0,0,0-.41,1.39l-.06-1a2.5,2.5,0,0,1,1-1.34A2.53,2.53,0,0,1,99,38.56Z"/><path class="cls-3" d="M104,47.46a1.46,1.46,0,0,1-1.3-.58,2.41,2.41,0,0,1-.4-1.41,2.34,2.34,0,0,1,.26-1.16,2.26,2.26,0,0,1,.68-.73,4.92,4.92,0,0,1,.87-.48l.89-.38a2.58,2.58,0,0,0,.68-.44.82.82,0,0,0,.26-.63V40.36a2.6,2.6,0,0,0-.11-.77,1,1,0,0,0-.35-.52,1,1,0,0,0-.61-.18,1.7,1.7,0,0,0-.54.09,1,1,0,0,0-.44.3,1.28,1.28,0,0,1,.59.51,1.52,1.52,0,0,1,.2.77,1.24,1.24,0,0,1-.31.89,1,1,0,0,1-.75.33.82.82,0,0,1-.73-.37,1.63,1.63,0,0,1-.24-.9,1.51,1.51,0,0,1,.19-.8,2.45,2.45,0,0,1,.54-.59,2.94,2.94,0,0,1,.91-.42,4.56,4.56,0,0,1,1.14-.14,3.94,3.94,0,0,1,1.12.15,1.83,1.83,0,0,1,.83.57,2.05,2.05,0,0,1,.4.94,8.94,8.94,0,0,1,.09,1.4v4.5a1.51,1.51,0,0,0,.07.56.23.23,0,0,0,.23.17.4.4,0,0,0,.25-.09,1.37,1.37,0,0,0,.23-.19l.13.28a1.85,1.85,0,0,1-.65.45,2,2,0,0,1-.82.16,1.2,1.2,0,0,1-1.07-.41,1.81,1.81,0,0,1-.27-.93,2.57,2.57,0,0,1-.82,1A2,2,0,0,1,104,47.46Zm1-1.06a.85.85,0,0,0,.48-.15,1.63,1.63,0,0,0,.43-.53V42.33a1.41,1.41,0,0,1-.45.55l-.59.48a2.13,2.13,0,0,0-.5.66,2.38,2.38,0,0,0-.2,1.06,1.65,1.65,0,0,0,.24,1A.72.72,0,0,0,105.07,46.4Z"/><path class="cls-3" d="M113.82,38.56a1,1,0,0,1,.7.22,1.27,1.27,0,0,1,.39.57,2,2,0,0,1,.13.73,1.65,1.65,0,0,1-.29,1,.89.89,0,0,1-.75.39,1,1,0,0,1-.74-.29,1.12,1.12,0,0,1-.26-.77,1.6,1.6,0,0,1,.17-.77,1.78,1.78,0,0,1,.42-.52.44.44,0,0,0-.37,0,1.05,1.05,0,0,0-.63.4,2.78,2.78,0,0,0-.43.8,2.73,2.73,0,0,0-.16.91v4.39A1.1,1.1,0,0,0,113.26,47v.35l-.9,0c-.39,0-.8,0-1.23,0s-.72,0-1.09,0l-.83,0V47a.79.79,0,0,0,.66-.24,1.63,1.63,0,0,0,.2-1V40.59a2.55,2.55,0,0,0-.18-1.1.69.69,0,0,0-.68-.35v-.35a8,8,0,0,0,.83.05,8.5,8.5,0,0,0,1-.06,7.39,7.39,0,0,0,.91-.17v1.53a3.49,3.49,0,0,1,.43-.81,2.19,2.19,0,0,1,.61-.57A1.51,1.51,0,0,1,113.82,38.56Z"/><path class="cls-3" d="M122,38.79v.33a1,1,0,0,0-.48.39,3.4,3.4,0,0,0-.45,1l-1.88,6.55-.5,1.16-2.92-8.19a1.53,1.53,0,0,0-.45-.78.69.69,0,0,0-.38-.14v-.35c.29,0,.6.06.92.07l.91,0c.37,0,.71,0,1,0l.86-.06v.35a2.78,2.78,0,0,0-.51,0,.39.39,0,0,0-.32.23,1,1,0,0,0,.08.65l1.68,5-.12.1,1-3.42a3.28,3.28,0,0,0,.13-2,1,1,0,0,0-.9-.69v-.33l.67,0,.63,0,.56,0Zm-2.81,8.3-.51,1.77a2.84,2.84,0,0,1-.59,1.18,1.42,1.42,0,0,1-.49.31,2,2,0,0,1-.68.1,1.8,1.8,0,0,1-.66-.13,1.28,1.28,0,0,1-.57-.43,1.23,1.23,0,0,1-.23-.76,1.12,1.12,0,0,1,.3-.82,1,1,0,0,1,.77-.31,1,1,0,0,1,.73.27,1,1,0,0,1,.28.78,1.29,1.29,0,0,1-.17.63,1.08,1.08,0,0,1-.5.44l.16,0h.15a1,1,0,0,0,.71-.32,2.4,2.4,0,0,0,.5-1l.47-1.7Z"/><path class="cls-3" d="M129.44,35.63V36a1.75,1.75,0,0,0-.65.12.56.56,0,0,0-.29.4,4.82,4.82,0,0,0-.06.9v8.21a4,4,0,0,0,.07.89.57.57,0,0,0,.29.4,2.16,2.16,0,0,0,.64.13v.33l-.91,0h-2.32l-.91,0V47a2,2,0,0,0,.64-.13.54.54,0,0,0,.29-.4,3.84,3.84,0,0,0,.08-.89V37.38a3.82,3.82,0,0,0-.08-.9.59.59,0,0,0-.29-.4,1.69,1.69,0,0,0-.64-.12v-.33l.91,0,1.21,0,1.11,0Z"/><path class="cls-3" d="M138.49,35.63c0,.56-.07,1.1-.08,1.62s0,.91,0,1.19,0,.47,0,.7,0,.4,0,.56h-.31a9.91,9.91,0,0,0-.54-2.2,2.63,2.63,0,0,0-.78-1.15,1.74,1.74,0,0,0-1.08-.34h-.3v9.45a3.45,3.45,0,0,0,.11,1,.68.68,0,0,0,.42.44,3.25,3.25,0,0,0,.9.12v.33l-1.1,0-1.45,0-1.39,0-1.06,0V47a3.22,3.22,0,0,0,.91-.12.64.64,0,0,0,.42-.44,3.45,3.45,0,0,0,.11-1V36H133a1.71,1.71,0,0,0-1.07.34,2.59,2.59,0,0,0-.78,1.14,11.46,11.46,0,0,0-.56,2.21h-.31c0-.16,0-.34,0-.56v-.7c0-.28,0-.67,0-1.19s0-1.06-.07-1.62l1.35,0,1.46,0h2.66l1.47,0Z"/><path class="cls-3" d="M147,35.4a2.9,2.9,0,0,1,1.46.32,4.5,4.5,0,0,1,1,.75c.18.17.32.19.41.06a2.07,2.07,0,0,0,.19-.9h.31c0,.43,0,.95,0,1.56s0,1.43,0,2.44H150c0-.51-.1-.94-.17-1.3a4.61,4.61,0,0,0-.3-.95,2.24,2.24,0,0,0-.54-.74,2.16,2.16,0,0,0-.77-.62,2.31,2.31,0,0,0-.93-.19,1.72,1.72,0,0,0-1.23.47,3.33,3.33,0,0,0-.82,1.28,8.43,8.43,0,0,0-.47,1.83,16,16,0,0,0-.14,2.11,14.39,14.39,0,0,0,.15,2.12,7.67,7.67,0,0,0,.48,1.82,3.45,3.45,0,0,0,.85,1.25,1.81,1.81,0,0,0,1.24.47,2.1,2.1,0,0,0,.89-.21,2.24,2.24,0,0,0,.77-.6,2.61,2.61,0,0,0,.71-1.24,12.16,12.16,0,0,0,.28-2h.31c0,1,0,1.9,0,2.54s0,1.19,0,1.63H150a2,2,0,0,0-.18-.89c-.08-.12-.22-.11-.42,0a6.3,6.3,0,0,1-1.05.75,2.78,2.78,0,0,1-1.43.32,4.3,4.3,0,0,1-2.48-.71,4.68,4.68,0,0,1-1.66-2,8,8,0,0,1-.59-3.23,8.14,8.14,0,0,1,.61-3.24,5.23,5.23,0,0,1,1.68-2.17A4,4,0,0,1,147,35.4Z"/><path class="cls-3" d="M153.18,47.46a1.46,1.46,0,0,1-1.3-.58,2.41,2.41,0,0,1-.4-1.41,2.34,2.34,0,0,1,.26-1.16,2.26,2.26,0,0,1,.68-.73,4.92,4.92,0,0,1,.87-.48l.89-.38a2.58,2.58,0,0,0,.68-.44.82.82,0,0,0,.26-.63V40.36a2.6,2.6,0,0,0-.11-.77,1,1,0,0,0-.35-.52,1,1,0,0,0-.61-.18,1.6,1.6,0,0,0-.53.09,1,1,0,0,0-.45.3,1.28,1.28,0,0,1,.59.51,1.52,1.52,0,0,1,.2.77,1.24,1.24,0,0,1-.31.89,1,1,0,0,1-.74.33.8.8,0,0,1-.73-.37,1.56,1.56,0,0,1-.25-.9,1.51,1.51,0,0,1,.19-.8,2.45,2.45,0,0,1,.54-.59,2.94,2.94,0,0,1,.91-.42,4.56,4.56,0,0,1,1.14-.14,3.84,3.84,0,0,1,1.12.15,1.83,1.83,0,0,1,.83.57,2.05,2.05,0,0,1,.4.94,8.94,8.94,0,0,1,.09,1.4v4.5a1.77,1.77,0,0,0,.07.56.23.23,0,0,0,.23.17.4.4,0,0,0,.25-.09,1.37,1.37,0,0,0,.23-.19l.13.28a1.85,1.85,0,0,1-.65.45,2,2,0,0,1-.82.16,1.2,1.2,0,0,1-1.07-.41,1.81,1.81,0,0,1-.27-.93,2.57,2.57,0,0,1-.82,1A2,2,0,0,1,153.18,47.46Zm1-1.06a.85.85,0,0,0,.48-.15,1.63,1.63,0,0,0,.43-.53V42.33a1.41,1.41,0,0,1-.45.55l-.59.48a2.13,2.13,0,0,0-.5.66,2.38,2.38,0,0,0-.2,1.06,1.65,1.65,0,0,0,.24,1A.72.72,0,0,0,154.21,46.4Z"/><path class="cls-3" d="M163,38.56a1,1,0,0,1,.7.22,1.27,1.27,0,0,1,.39.57,2,2,0,0,1,.13.73,1.65,1.65,0,0,1-.29,1,.89.89,0,0,1-.75.39.93.93,0,0,1-.73-.29,1.08,1.08,0,0,1-.27-.77,1.6,1.6,0,0,1,.17-.77,1.78,1.78,0,0,1,.42-.52.44.44,0,0,0-.37,0,1,1,0,0,0-.62.4,2.58,2.58,0,0,0-.44.8,2.73,2.73,0,0,0-.16.91v4.39A1.1,1.1,0,0,0,162.4,47v.35l-.9,0c-.39,0-.8,0-1.23,0s-.72,0-1.09,0l-.83,0V47a.83.83,0,0,0,.67-.24,1.64,1.64,0,0,0,.19-1V40.59a2.55,2.55,0,0,0-.18-1.1.69.69,0,0,0-.68-.35v-.35a8,8,0,0,0,.83.05,8.78,8.78,0,0,0,1.06-.06,7.58,7.58,0,0,0,.9-.17v1.53a3.49,3.49,0,0,1,.43-.81,2.19,2.19,0,0,1,.61-.57A1.51,1.51,0,0,1,163,38.56Z"/><path class="cls-3" d="M167.88,38.56a2.21,2.21,0,0,1,1.85.86,4.66,4.66,0,0,1,.67,2.81H166l0-.32h2.75a10,10,0,0,0-.08-1.49,3.39,3.39,0,0,0-.3-1.1.6.6,0,0,0-.53-.42c-.32,0-.58.25-.8.73a7.17,7.17,0,0,0-.4,2.42l.05.1,0,.41V43a5.55,5.55,0,0,0,.26,1.85,2.24,2.24,0,0,0,.66,1,1.29,1.29,0,0,0,.82.33,2,2,0,0,0,.88-.25,2.46,2.46,0,0,0,.89-1.08l.24.1a5,5,0,0,1-.51,1.23,3.16,3.16,0,0,1-.88,1,2.14,2.14,0,0,1-1.29.38,2.78,2.78,0,0,1-1.61-.48A3.12,3.12,0,0,1,165,45.64a6.75,6.75,0,0,1-.39-2.48,6.84,6.84,0,0,1,.42-2.57,3.36,3.36,0,0,1,1.16-1.53A2.93,2.93,0,0,1,167.88,38.56Z"/><line class="cls-4" x1="80.94" y1="52.13" x2="160.44" y2="52.13"/></g></g></svg>