<svg xmlns="http://www.w3.org/2000/svg" xmlns:xlink="http://www.w3.org/1999/xlink" width="530.362" height="541.141" viewBox="0 0 530.362 541.141">
  <defs>
    <clipPath id="clip-path">
      <path id="Path_332" data-name="Path 332" d="M555.73,599.691s49.558.319,63.483,3.876S670,690.543,685.248,698.53s28.205-5.28,45.008-15.13,32.2-21.771,32.684-26.746-6.655-24.853-12.827-28.864-24.1-4.295-33.655,1.828c-14.046-38.269-34.017-94.077-52.329-101.759s-73.809-11.339-73.809-11.339Z" transform="translate(-555.73 -516.52)" fill="#e1ecff"/>
    </clipPath>
  </defs>
  <g id="Astronaut-01" transform="translate(-148.265 -158.202)">
    <g id="Layer_3" data-name="Layer 3" transform="translate(148.265 158.202)">
      <path id="Path_327" data-name="Path 327" d="M277.651,356.817s-24.1,9.532-27.638,32.684,51.209,90.973,51.209,90.973l168.85-90.987L416.686,295.8Z" transform="translate(-177.858 -198.287)" fill="#c7dcf9"/>
      <path id="Path_328" data-name="Path 328" d="M329.924,387.727s-17.767,18.241-23.216,38.425-6.151,56.227-5.244,69.727c26.5,24.527,131.269,3.976,131.269,3.976L533.69,381.094s-17.115-32.493-25.8-41.4-36.851-19.985-69.344-6.91C419.473,359.848,329.924,387.727,329.924,387.727Z" transform="translate(-192.798 -207.314)" fill="#e1ecff"/>
      <path id="Path_329" data-name="Path 329" d="M330.57,397.514s39.2,12.579,83.319-4.465S466.006,328,466.006,328L447.1,333.145,338.5,388.082Z" transform="translate(-201.374 -207.668)" fill="#e1ecff"/>
      <path id="Path_330" data-name="Path 330" d="M555.73,599.691s49.558.319,63.483,3.876S670,690.543,685.248,698.53s28.205-5.28,45.008-15.13,32.2-21.771,32.684-26.746-6.655-24.853-12.827-28.864-24.1-4.295-33.655,1.828c-14.046-38.269-34.017-94.077-52.329-101.759s-73.809-11.339-73.809-11.339Z" transform="translate(-266.968 -262.588)" fill="#e1ecff"/>
      <g id="Group_31" data-name="Group 31" transform="translate(288.762 253.932)" clip-path="url(#clip-path)">
        <path id="Path_331" data-name="Path 331" d="M602.94,582.34s40.352,4.415,51.5,19.432,33.237,106.9,57.963,109.08c.4,29.765-50.812,40.515-50.812,40.515L538.84,614.975Z" transform="translate(-550.81 -535.695)" fill="#e1ecff" opacity="0.51"/>
      </g>
      <path id="Path_333" data-name="Path 333" d="M367.85,611.188s30.473,63.916,58.112,81.349,77.714,16.023,91.526,27.44,10.892,66.261,24.7,80.789,33.23,23.429,51.386,21.792,32.684-10.347,32.869-18.518-.546-15.258-9.078-19.616-20.552-7.987-21.069-13.068-10.17-82.441-14.174-103.467-35.1-50.274-75.177-65.007C468.993,571.1,410.7,584.718,410.7,584.718Z" transform="translate(-212.235 -281.611)" fill="#e1ecff"/>
      <path id="Path_334" data-name="Path 334" d="M376.716,625.433s34.973,1.786,66.382-12.012c-6-31.961-24.52-41.4-24.52-41.4L367.85,608.333Z" transform="translate(-212.235 -278.756)" fill="#e1ecff"/>
      <path id="Path_335" data-name="Path 335" d="M390.718,172.11c-27.39-14.663-84.793-19.609-120.227,24.336s-17.774,89.52-2.884,110.738c15.591,22.267,69.181,56.3,126.379,24.336S457.178,207.7,390.718,172.11Z" transform="translate(-177.841 -159.214)" fill="#e1ecff"/>
      <path id="Path_336" data-name="Path 336" d="M401.39,213.338c24.329,5.811,40.133,39.948,31.961,72.633s-36.32,54.66-67.913,54.838-63.009-21.4-62.839-61.733C302.77,240.31,348.558,200.723,401.39,213.338Z" transform="translate(-193.226 -173.568)" fill="#1c3177"/>
      <path id="Path_337" data-name="Path 337" d="M343.09,551.583c31.7-14.712,7.987-48.3,39.587-55.943,41.663,5.925,53.186,3.8,53.186,3.8S356.158,569.442,343.09,551.583Z" transform="translate(-205.021 -256.505)" fill="#e1ecff"/>
      <path id="Path_338" data-name="Path 338" d="M380.36,398.817l52.754,135.747,74.631-1.779,68.274-43.215,20.339-61.74L546.97,279.66,523,349.026l-62.1,49.388Z" transform="translate(-215.879 -193.585)" fill="#136eff"/>
      <path id="Path_339" data-name="Path 339" d="M331,550.767c17.49-1.417,26.4-12.806,31.7-17.859,2.7-2.58,2.161-4.84.8-12.281s3.359-15.074,9.808-18.341c3.543,9.532,7.895,11.339,11.254,10.892s6.81-20.516,17.795-20.339,19.793,14.712,21.26,21.969-5.627,27.957-14.528,42.485-21.459,32.514-49.728,38.141-44.342-8.809-53.6-27.057c-3.125-6.158-4.252-14.67-4.153-24.152C301.608,544.226,307.936,552.581,331,550.767Z" transform="translate(-192.935 -255.689)" fill="#e1ecff"/>
      <path id="Path_340" data-name="Path 340" d="M636.5,351.651s3.366,10.949,1.1,15.215-5.358,7.8-7.625,13.259,1.091,26.058,11.077,29.594S659.3,404,661.933,398.643s1.176-19.425-2.728-29.233S647.958,350.885,636.5,351.651Z" transform="translate(-288.399 -214.544)" fill="#e1ecff"/>
      <path id="Path_341" data-name="Path 341" d="M650.025,159.271l2.239,4.536a1.878,1.878,0,0,0,1.417,1.035l5.01.709a1.892,1.892,0,0,1,1.049,3.232l-3.621,3.543a1.885,1.885,0,0,0-.546,1.672l.85,4.961a1.892,1.892,0,0,1-2.743,2L649.2,178.6a1.878,1.878,0,0,0-1.758,0l-4.486,2.353a1.892,1.892,0,0,1-2.75-2l.857-4.961a1.885,1.885,0,0,0-.546-1.673l-3.621-3.543a1.892,1.892,0,0,1,1.049-3.232l5.01-.709a1.878,1.878,0,0,0,1.417-1.035l2.239-4.536a1.9,1.9,0,0,1,3.416,0Z" transform="translate(-290.445 -158.202)" fill="#fec272"/>
      <path id="Path_342" data-name="Path 342" d="M312.622,836.633l1.878,3.806a1.559,1.559,0,0,0,1.191.865l4.2.609a1.587,1.587,0,0,1,.879,2.707l-3.04,2.962a1.573,1.573,0,0,0-.454,1.417l.709,4.181a1.595,1.595,0,0,1-2.3,1.68l-3.756-1.977a1.6,1.6,0,0,0-1.474,0l-3.742,1.963a1.587,1.587,0,0,1-2.3-1.68l.709-4.181a1.6,1.6,0,0,0-.461-1.417l-3.033-2.962a1.587,1.587,0,0,1,.879-2.707l4.2-.609a1.58,1.58,0,0,0,1.2-.865l1.878-3.806a1.587,1.587,0,0,1,2.849.014Z" transform="translate(-192.802 -355.583)" fill="#fec272"/>
      <ellipse id="Ellipse_139" data-name="Ellipse 139" cx="32.337" cy="11.438" rx="32.337" ry="11.438" transform="translate(150.425 65.137) rotate(-12.43)" fill="#fff" opacity="0.48"/>
      <path id="Path_343" data-name="Path 343" d="M453.631,545.19s-20.063-17.93-23.7-17.93-13.316,14.174-11.133,17.93,13.394,16.059,25.7,19.843C448.493,557.421,453.631,545.19,453.631,545.19Z" transform="translate(-226.985 -265.717)" fill="#e1ecff"/>
      <path id="Path_344" data-name="Path 344" d="M494,426.928,540.851,561.3l68.274-43.215L556.1,377.54Z" transform="translate(-248.985 -222.1)" fill="#14348e" opacity="0.5"/>
      <path id="Path_345" data-name="Path 345" d="M662.525,739.49a87.168,87.168,0,0,1-23.386,13.869c-7.944,3.062-10.63,9.326-8.228,20.821s3.749,29.417,8.71,34.137,22.026,2.211,30.87-8.759C667.72,777.943,662.525,739.49,662.525,739.49Z" transform="translate(-288.623 -327.544)" fill="#e1ecff"/>
      <path id="Path_346" data-name="Path 346" d="M737.4,574.12s-9.922,4.323-8.979,11.218S739.5,625.563,743.5,628.568s15.825-2.325,15.825-2.325C747.176,591.83,737.4,574.12,737.4,574.12Z" transform="translate(-317.259 -279.368)" fill="#e1ecff"/>
      <path id="Path_347" data-name="Path 347" d="M149.721,673.233c-7.888-16.356,17.816-33.861,39.686-32.6s31.061,21.452,38.807,28.985c16.179,15.718,15.669,31.1,4.465,37.709S160.16,694.869,149.721,673.233Z" transform="translate(-148.265 -298.726)" fill="#99adf9"/>
      <path id="Path_348" data-name="Path 348" d="M771.882,312.535c-6.378-5.584.184-31.834,15.251-37.978s33.776.574,37.773,11.105S784.957,323.973,771.882,312.535Z" transform="translate(-329.23 -191.416)" fill="#99adf9"/>
      <path id="Path_349" data-name="Path 349" d="M875.79,347.745c-3.267,4.656-5.443,17.915,1.453,20.275s12.111-11.282,9.688-18.383S877.973,344.633,875.79,347.745Z" transform="translate(-359.308 -212.58)" fill="#99adf9"/>
      <path id="Path_350" data-name="Path 350" d="M879.851,196.855c-5.145,2.424-13.628,12.841-8.809,18.319s16.108-3.777,17.533-11.14S883.288,195.239,879.851,196.855Z" transform="translate(-358.408 -169.289)" fill="#99adf9" opacity="0.44"/>
      <path id="Path_351" data-name="Path 351" d="M192.866,782.194c-4.451-3.543-17.54-6.555-20.332.184s10.5,12.756,17.717,10.814S195.828,784.561,192.866,782.194Z" transform="translate(-155.224 -338.867)" fill="#99adf9" opacity="0.44"/>
      <path id="Path_352" data-name="Path 352" d="M253.125,675.23c-7.916,1.488-6.64,8.568-4.1,14.981s11.466,8.242,17.767,2.381C262.7,682.862,253.125,675.23,253.125,675.23Z" transform="translate(-177.051 -308.823)" fill="#99adf9" opacity="0.64"/>
      <path id="Path_353" data-name="Path 353" d="M188.2,660.11c-5.669.631-10.29,8.837-6.293,15.492s11.615,11.5,15.974,9.688,5.088-11.622,1.942-17.915S193.645,659.5,188.2,660.11Z" transform="translate(-157.626 -304.383)" fill="#99adf9" opacity="0.64"/>
      <path id="Path_354" data-name="Path 354" d="M820.271,283.411c-3.111.992-6.265,4.358-5.988,7.994s3.451,6.81,6.9,6.378,6.378-6,5.669-9.992A5.144,5.144,0,0,0,820.271,283.411Z" transform="translate(-342.285 -194.615)" fill="#99adf9" opacity="0.64"/>
      <path id="Path_355" data-name="Path 355" d="M774.4,293.5s4.252,4.252,3.543,9.078-8.036,4.38-8.036,4.38S771,298.73,774.4,293.5Z" transform="translate(-329.363 -197.617)" fill="#99adf9" opacity="0.64"/>
    </g>
  </g>
</svg>
