<svg id="call-24px" xmlns="http://www.w3.org/2000/svg" width="46.74" height="46.74" viewBox="0 0 46.74 46.74">
  <defs>
    <style>
      .cls-1 {
        fill: none;
      }

      .cls-2 {
        fill: #fff;
      }
    </style>
  </defs>
  <path id="Path_312" data-name="Path 312" class="cls-1" d="M0,0H46.74V46.74H0Z"/>
  <path id="Path_313" data-name="Path 313" class="cls-2" d="M36.127,27.11a22.285,22.285,0,0,1-6.875-1.091,1.9,1.9,0,0,0-1.967.467l-3.058,3.837a29.57,29.57,0,0,1-13.418-13.3l3.8-3.233a1.988,1.988,0,0,0,.467-1.986,21.72,21.72,0,0,1-1.091-6.875A1.945,1.945,0,0,0,12.056,3H5.318C4.266,3,3,3.467,3,4.928A33.4,33.4,0,0,0,36.127,38.055a2.044,2.044,0,0,0,1.928-2.3V29.038a1.945,1.945,0,0,0-1.928-1.928Z" transform="translate(2.843 2.843)"/>
</svg>
