<svg xmlns="http://www.w3.org/2000/svg" width="704.121" height="554" viewBox="0 0 704.121 554">
  <g id="undraw_Mobile_pay_re_sjb8" transform="translate(0.426)">
    <path id="Path_288" data-name="Path 288" d="M536.056,238.871h-2.91V159.144A46.144,46.144,0,0,0,487,113H318.088a46.144,46.144,0,0,0-46.144,46.144v437.39a46.144,46.144,0,0,0,46.144,46.144H487a46.144,46.144,0,0,0,46.144-46.144V295.623h2.91Z" transform="translate(-189.744 -113)" fill="#3f3d56"/>
    <path id="Path_289" data-name="Path 289" d="M491.2,128.933H469.149a16.372,16.372,0,0,1-15.158,22.555H357.223a16.372,16.372,0,0,1-15.158-22.555H321.471a34.46,34.46,0,0,0-34.46,34.46V600.142a34.46,34.46,0,0,0,34.46,34.46H491.2a34.46,34.46,0,0,0,34.46-34.46V163.393a34.46,34.46,0,0,0-34.46-34.46Zm-3.7,202.61a8.952,8.952,0,0,1-8.926,8.926H435.426a8.952,8.952,0,0,1-8.926-8.926v-2.231a8.952,8.952,0,0,1,8.926-8.926h43.141a8.952,8.952,0,0,1,8.926,8.926Zm4.835-39.422a8.952,8.952,0,0,1-8.926,8.926H328.688a8.952,8.952,0,0,1-8.926-8.926v-2.231a8.952,8.952,0,0,1,8.926-8.926H483.4a8.952,8.952,0,0,1,8.926,8.926Zm0-39.422a8.952,8.952,0,0,1-8.926,8.926H328.688a8.952,8.952,0,0,1-8.926-8.926v-2.231a8.952,8.952,0,0,1,8.926-8.926H483.4a8.952,8.952,0,0,1,8.926,8.926Zm0-39.422A8.952,8.952,0,0,1,483.4,222.2H328.688a8.952,8.952,0,0,1-8.926-8.926v-2.231a8.952,8.952,0,0,1,8.926-8.926H483.4a8.952,8.952,0,0,1,8.926,8.926Z" transform="translate(-192.427 -115.837)" fill="#fff"/>
    <circle id="Ellipse_115" data-name="Ellipse 115" cx="5.207" cy="5.207" r="5.207" transform="translate(134.402 170.334)" fill="#fff"/>
    <circle id="Ellipse_116" data-name="Ellipse 116" cx="5.207" cy="5.207" r="5.207" transform="translate(151.51 170.334)" fill="#fff"/>
    <circle id="Ellipse_117" data-name="Ellipse 117" cx="5.207" cy="5.207" r="5.207" transform="translate(168.618 170.334)" fill="#fff"/>
    <circle id="Ellipse_118" data-name="Ellipse 118" cx="5.207" cy="5.207" r="5.207" transform="translate(185.726 170.334)" fill="#fff"/>
    <circle id="Ellipse_119" data-name="Ellipse 119" cx="5.207" cy="5.207" r="5.207" transform="translate(241.512 209.757)" fill="#fff"/>
    <circle id="Ellipse_120" data-name="Ellipse 120" cx="5.207" cy="5.207" r="5.207" transform="translate(258.62 209.757)" fill="#fff"/>
    <circle id="Ellipse_121" data-name="Ellipse 121" cx="5.207" cy="5.207" r="5.207" transform="translate(275.728 209.757)" fill="#fff"/>
    <path id="Path_290" data-name="Path 290" d="M496.653,456.6H320.205a15.63,15.63,0,0,0-15.63,15.63V558.2a15.63,15.63,0,0,0,15.63,15.63H496.653a15.63,15.63,0,0,0,15.63-15.63V472.231a15.63,15.63,0,0,0-15.63-15.63ZM315.84,467.263c.348-.063,8.611-1.469,15.452,2.648s9.47,12.075,9.578,12.412l.277.858-.888.158a23.572,23.572,0,0,1-3.829.281,22.8,22.8,0,0,1-11.624-2.93c-6.841-4.115-9.469-12.074-9.578-12.411l-.277-.858Zm38.3,79.816H322.671a8.655,8.655,0,0,1,0-17.309h31.471a8.655,8.655,0,0,1,0,17.309Zm143.193-1.574a9.469,9.469,0,0,1-9.442,9.442h-23.6a9.469,9.469,0,0,1-9.441-9.441V531.344a9.469,9.469,0,0,1,9.441-9.441h23.6a9.469,9.469,0,0,1,9.441,9.441Z" transform="translate(-195.554 -174.175)" fill="#136eff"/>
    <path id="Path_291" data-name="Path 291" d="M505.534,561.213h-9.49a2.555,2.555,0,0,0,0,5.11h9.49a2.555,2.555,0,0,0,0-5.11Z" transform="translate(-229.188 -192.801)" fill="#3f3d56"/>
    <path id="Path_292" data-name="Path 292" d="M526.85,561.213h-9.49a2.555,2.555,0,1,0,0,5.11h9.49a2.555,2.555,0,0,0,0-5.11Z" transform="translate(-232.983 -192.801)" fill="#3f3d56"/>
    <path id="Path_293" data-name="Path 293" d="M505.533,552.438h-9.49a2.555,2.555,0,1,0,0,5.11h9.49a2.555,2.555,0,0,0,0-5.11Z" transform="translate(-229.188 -191.238)" fill="#3f3d56"/>
    <path id="Path_294" data-name="Path 294" d="M526.848,552.438h-9.49a2.555,2.555,0,1,0,0,5.11h9.49a2.555,2.555,0,1,0,0-5.11Z" transform="translate(-232.983 -191.238)" fill="#3f3d56"/>
    <path id="Path_295" data-name="Path 295" d="M505.533,543.841h-9.49a2.555,2.555,0,1,0,0,5.11h9.49a2.555,2.555,0,0,0,0-5.11Z" transform="translate(-229.188 -189.708)" fill="#3f3d56"/>
    <path id="Path_296" data-name="Path 296" d="M526.848,543.841h-9.49a2.555,2.555,0,1,0,0,5.11h9.49a2.555,2.555,0,1,0,0-5.11Z" transform="translate(-232.983 -189.708)" fill="#3f3d56"/>
    <rect id="Rectangle_105" data-name="Rectangle 105" width="23" height="23" transform="translate(400.575 315)" fill="#e6e6e6"/>
    <path id="Path_297" data-name="Path 297" d="M625.939,513h37.81v37.81h-37.81Zm36.166,1.644H627.583v34.522h34.522Z" transform="translate(-252.77 -184.217)" fill="#fff"/>
    <rect id="Rectangle_106" data-name="Rectangle 106" width="23" height="23" transform="translate(-0.426 125)" fill="#e6e6e6"/>
    <path id="Path_298" data-name="Path 298" d="M224.749,267.81h-37.81V230h37.81Zm-36.166-1.644h34.522V231.644H188.583Z" transform="translate(-174.61 -133.831)" fill="#3f3d56"/>
    <path id="Path_299" data-name="Path 299" d="M649.856,653H639.779l-4.794-38.869h14.873Z" transform="translate(-113.054 -109.34)" fill="#ffb8b8"/>
    <path id="Path_300" data-name="Path 300" d="M629.41,657.914h19.434V670.15H617.173A12.236,12.236,0,0,1,629.41,657.914Z" transform="translate(-109.882 -117.136)" fill="#2f2e41"/>
    <path id="Path_301" data-name="Path 301" d="M710.856,653H700.779l-4.794-38.869h14.873Z" transform="translate(-123.914 -109.34)" fill="#ffb8b8"/>
    <path id="Path_302" data-name="Path 302" d="M690.41,657.914h19.434V670.15H678.173A12.236,12.236,0,0,1,690.41,657.914Z" transform="translate(-120.743 -117.136)" fill="#2f2e41"/>
    <path id="Path_303" data-name="Path 303" d="M763.185,582.031a8.83,8.83,0,0,1,3.708-13.022l34.256-94.416,16.856,9.2L778.892,574.02a8.878,8.878,0,0,1-15.707,8.012Z" transform="translate(-276.934 -177.379)" fill="#ffb8b8"/>
    <path id="Path_304" data-name="Path 304" d="M876.94,602.366a8.83,8.83,0,0,1-2.378-13.329L863.95,489.161l19.183.876,4.41,98.241a8.878,8.878,0,0,1-10.6,14.088Z" transform="translate(-295.146 -179.972)" fill="#ffb8b8"/>
    <circle id="Ellipse_122" data-name="Ellipse 122" cx="20.188" cy="20.188" r="20.188" transform="translate(531.004 239.35)" fill="#ffb8b8"/>
    <path id="Path_305" data-name="Path 305" d="M866.414,574.883H805.55l.073-.474c.109-.708,10.847-71.049,2.928-94.062a9.709,9.709,0,0,1,4.989-11.987h0c11.32-5.331,33.049-11.895,51.389,4.035a23.208,23.208,0,0,1,7.775,19.231Z" transform="translate(-284.748 -175.204)" fill="#ccc"/>
    <path id="Path_306" data-name="Path 306" d="M813.837,515.217l-27.4-5.559,12.844-30.437a11.505,11.505,0,1,1,22.28,5.752Z" transform="translate(-281.345 -176.666)" fill="#ccc"/>
    <path id="Path_307" data-name="Path 307" d="M862.062,526l-1.647-37.762c-1.249-7.1,2.814-13.809,9.064-14.906s12.355,3.83,13.61,10.981l6.192,35.285Z" transform="translate(-294.476 -177.127)" fill="#ccc"/>
    <path id="Path_308" data-name="Path 308" d="M863.678,593.752c9.793,37.3,10.862,84.719,8.22,136.445l-13.151-1.644-23.837-98.635L821.758,730.2l-14.8-.822c-4.42-54.274-8.724-100.867-1.644-131.513Z" transform="translate(-284.038 -198.594)" fill="#2f2e41"/>
    <path id="Path_309" data-name="Path 309" d="M850.575,437.97c-3.766,4.012-10.76,1.858-11.251-3.622a6.636,6.636,0,0,1,.008-1.279c.253-2.428,1.656-4.632,1.32-7.2a3.773,3.773,0,0,0-.69-1.766c-3-4.019-10.046,1.8-12.879-1.841-1.737-2.231.3-5.743-1.028-8.236-1.759-3.291-6.969-1.667-10.237-3.47-3.635-2.005-3.418-7.583-1.025-10.975,2.918-4.137,8.035-6.345,13.088-6.663s10.071,1.048,14.789,2.886c5.36,2.089,10.675,4.976,13.974,9.689,4.011,5.732,4.4,13.437,2.391,20.139C857.815,429.714,853.65,434.694,850.575,437.97Z" transform="translate(-286.081 -162.83)" fill="#2f2e41"/>
    <path id="Path_310" data-name="Path 310" d="M959.048,786.644H645.882a.822.822,0,1,1,0-1.644H959.048a.822.822,0,1,1,0,1.644Z" transform="translate(-256.174 -232.644)" fill="#3f3d56"/>
  </g>
</svg>
